# Blender v2.79 (sub 0) OBJ File: 'untitled.blend'
# www.blender.org
mtllib bowstringtrussbridge.mtl
o Cube_Cube.004
v -11.116241 -0.083342 -2.186618
v -7.495929 4.009007 -2.186620
v -7.495929 3.773883 -2.186619
v -10.886519 -0.201921 -2.186617
v -11.116241 -0.083342 -1.981890
v -7.495929 4.009007 -1.981889
v -7.291201 4.119470 -1.981892
v -3.704823 5.716435 -1.981891
v -3.704823 5.716435 -2.186620
v -7.291201 4.119470 -2.186620
v -3.704823 5.481310 -2.186619
v -7.291203 3.884346 -2.186619
v -10.886518 -0.201920 -1.981890
v -7.495931 3.773883 -1.981892
v -3.704823 5.481310 -1.981891
v -7.291201 3.884346 -1.981892
v -3.500093 5.808446 -2.186620
v -3.500095 5.573324 -2.186620
v -0.061873 6.132319 -2.186475
v -0.061872 6.367445 -2.186475
v 0.142857 6.366622 -2.186475
v 0.142856 6.131498 -2.186474
v -3.500093 5.573322 -1.981892
v -0.061873 6.132319 -1.981747
v -0.061872 6.367445 -1.981746
v -3.500093 5.808446 -1.981892
v -7.291200 3.884346 2.187999
v -7.291200 4.119472 2.187999
v -7.495930 3.773882 2.187999
v -7.495928 4.009007 2.187999
v 0.132902 6.366624 2.197950
v -0.071826 6.366624 2.197950
v -0.071826 6.131500 2.197950
v 0.132902 6.131500 2.197950
v -3.500095 5.808448 2.187998
v -3.704823 5.716436 2.187999
v -3.704823 5.481312 2.187998
v -3.500095 5.573325 2.187998
v 0.039658 -0.045691 2.230481
v 0.039654 -0.045690 -2.206654
v -3.612593 -0.045690 -2.206654
v -3.612592 -0.045690 2.230481
v -3.612593 -0.250927 -2.206654
v -3.612592 -0.250927 2.230481
v -7.395703 -0.250927 2.230483
v -7.395706 -0.250927 -2.206652
v 0.039654 -0.250927 -2.206654
v 0.039658 -0.250928 2.230481
v -7.395703 -0.045690 2.230483
v -7.395706 -0.045690 -2.206652
v -11.153517 -0.045690 -2.206650
v -11.153516 -0.045690 2.230485
v -11.153517 -0.250927 -2.206650
v -11.153516 -0.250927 2.230485
v -11.116241 -0.083342 1.983272
v -7.495928 4.009007 1.983271
v -7.495928 3.773882 1.983271
v -10.886519 -0.201921 1.983273
v -11.116241 -0.083342 2.188000
v -3.704823 5.716436 1.983270
v -7.291200 4.119472 1.983271
v -3.704823 5.481312 1.983271
v -7.291202 3.884346 1.983271
v -10.886518 -0.201920 2.188000
v -0.071826 6.367445 2.197951
v -3.500097 5.573325 1.983271
v -0.071826 6.132321 1.993222
v -3.500095 5.808448 1.983270
v -0.071826 6.367445 1.993222
v 11.187272 -0.083342 2.198094
v 7.566961 4.009007 2.198094
v 7.566961 3.773882 2.198093
v 10.957551 -0.201921 2.198093
v 11.187272 -0.083342 1.993366
v 7.566960 4.009007 1.993366
v 7.362231 4.119471 1.993366
v 3.775854 5.716435 1.993366
v 3.775854 5.716435 2.198096
v 7.362233 4.119471 2.198094
v 3.775854 5.481311 2.198095
v 7.362235 3.884346 2.198094
v 10.957549 -0.201921 1.993366
v 7.566961 3.773882 1.993366
v 3.775855 5.481311 1.993368
v 7.362231 3.884345 1.993367
v 3.571125 5.808447 2.198096
v 3.571127 5.573323 2.198095
v 3.571125 5.573322 1.993368
v 0.132906 6.132320 1.983415
v 0.132904 6.367445 1.983414
v 3.571125 5.808447 1.993368
v 7.362230 3.884345 -2.176523
v 7.362230 4.119470 -2.176523
v 7.566960 3.773882 -2.176523
v 7.566959 4.009007 -2.176524
v 3.571127 5.808447 -2.176522
v 3.775854 5.716434 -2.176523
v 3.775855 5.481310 -2.176522
v 3.571127 5.573322 -2.176522
v 3.683625 -0.045691 2.230479
v 3.683624 -0.045690 -2.206656
v 3.683625 -0.250928 2.230479
v 3.683624 -0.250927 -2.206656
v 7.466735 -0.250927 -2.206658
v 7.466739 -0.250928 2.230477
v 7.466735 -0.045690 -2.206658
v 7.466739 -0.045691 2.230477
v 11.224548 -0.045691 2.230475
v 11.224547 -0.045690 -2.206660
v 11.224547 -0.250927 -2.206660
v 11.224548 -0.250928 2.230475
v 11.187272 -0.083342 -1.971796
v 7.566959 4.009007 -1.971795
v 7.566960 3.773882 -1.971797
v 10.957551 -0.201921 -1.971796
v 11.187272 -0.083342 -2.176524
v 3.775854 5.716434 -1.971795
v 7.362230 4.119470 -1.971795
v 3.775854 5.481310 -1.971795
v 7.362234 3.884345 -1.971796
v 10.957549 -0.201921 -2.176524
v 3.571129 5.573322 -1.971795
v 0.142857 6.132319 -1.981746
v 3.571127 5.808447 -1.971793
v 0.142857 6.367445 -1.981746
v -7.495930 -0.085762 2.187999
v -7.291200 -0.085860 2.187999
v -7.291202 -0.085860 1.983272
v -7.495928 -0.085762 1.983272
v -3.704823 -0.054186 2.187999
v -3.500095 -0.053254 2.187999
v -3.500097 -0.053254 1.983272
v -3.704823 -0.054186 1.983272
v 0.132902 -0.109030 2.197951
v 0.132906 -0.108209 1.983416
v -0.071826 -0.108209 1.993223
v -0.071826 -0.109030 2.197951
v 3.571125 -0.086511 1.993369
v 3.571127 -0.086510 2.198096
v 3.775854 -0.102035 2.198096
v 3.775855 -0.102035 1.993368
v 7.362235 -0.037771 2.198095
v 7.566961 -0.043992 2.198094
v 7.362231 -0.037771 1.993367
v 7.566961 -0.043992 1.993367
v -7.495931 -0.085762 -1.981891
v -7.291201 -0.085860 -1.981891
v -7.291203 -0.085860 -2.186618
v -7.495929 -0.085762 -2.186618
v -3.704823 -0.054186 -1.981891
v -3.500095 -0.053254 -1.981891
v -3.500097 -0.053254 -2.186619
v -3.704823 -0.054186 -2.186619
v 0.132906 6.132319 -2.186475
v 0.132902 6.131498 -1.971940
v 0.132902 -0.109030 -1.971939
v 0.132906 -0.108209 -2.186474
v -0.071826 6.131498 -1.971940
v -0.071826 6.132319 -2.176667
v -0.071826 -0.108209 -2.176666
v -0.071826 -0.109030 -1.971939
v 3.571125 -0.086511 -2.176522
v 3.571127 -0.086510 -1.971794
v 3.775854 -0.102035 -1.971795
v 3.775855 -0.102035 -2.176522
v 7.362234 -0.037771 -1.971795
v 7.566960 -0.043992 -1.971796
v 7.362230 -0.037771 -2.176523
v 7.566960 -0.043992 -2.176523
v 0.202907 -0.182262 -2.171878
v 0.012409 -0.038765 -2.171878
v 3.617467 5.761764 -2.171880
v 3.617467 5.366635 -2.171880
v 7.400570 3.794631 -1.982868
v 7.400570 4.050179 -1.982868
v 3.687201 -0.047642 -1.982867
v 3.822423 -0.189225 -1.982867
v 3.617467 5.366635 -1.982867
v 3.617467 5.761764 -1.982867
v 0.012409 -0.038765 -1.982866
v 0.202907 -0.182262 -1.982866
v 3.822423 -0.189225 -2.171879
v 3.687201 -0.047642 -2.171879
v 7.400570 4.050179 -2.171880
v 7.400570 3.794631 -2.171880
v -0.207021 -0.182262 -1.982867
v -0.016523 -0.038765 -1.982867
v -3.621581 5.742414 -1.982866
v -3.621581 5.366635 -1.982866
v -7.404685 3.794631 -2.171876
v -7.404685 4.050179 -2.171876
v -3.691315 -0.047642 -2.171878
v -3.826537 -0.189225 -2.171877
v -3.621581 5.366635 -2.171878
v -3.621581 5.742414 -2.171879
v -0.016523 -0.038765 -2.171878
v -0.207021 -0.182262 -2.171878
v -3.826537 -0.189225 -1.982865
v -3.691315 -0.047642 -1.982865
v -7.404685 4.050179 -1.982866
v -7.404685 3.794631 -1.982866
v 0.202907 -0.182262 2.003332
v 0.012409 -0.038765 2.003332
v 3.617467 5.761765 2.003330
v 3.617467 5.366636 2.003330
v 7.400571 3.794631 2.192341
v 7.400571 4.050179 2.192341
v 3.687201 -0.047642 2.192343
v 3.822423 -0.189225 2.192343
v 3.617467 5.366636 2.192342
v 3.617467 5.761765 2.192342
v 0.012409 -0.038765 2.192343
v 0.202907 -0.182262 2.192343
v 3.822423 -0.189225 2.003331
v 3.687201 -0.047642 2.003331
v 7.400571 4.050179 2.003330
v 7.400571 3.794630 2.003330
v -0.207021 -0.182262 2.192343
v -0.016523 -0.038765 2.192343
v -3.621581 5.747416 2.192343
v -3.621581 5.366636 2.192343
v -7.404685 3.794631 2.003332
v -7.404685 4.050179 2.003332
v -3.691315 -0.047642 2.003332
v -3.826537 -0.189225 2.003333
v -3.621581 5.366636 2.003332
v -3.621581 5.747416 2.003331
v -0.016523 -0.038765 2.003331
v -0.207021 -0.182262 2.003331
v -3.826537 -0.189225 2.192344
v -3.691315 -0.047642 2.192343
v -7.404685 4.050179 2.192343
v -7.404685 3.794630 2.192344
v 3.581638 5.556552 2.164639
v 3.581636 5.791677 2.164639
v 3.765355 5.503581 2.164639
v 3.786365 5.681214 2.164639
v 3.577262 5.568010 -2.176522
v -0.048897 6.130062 2.164639
v -0.048898 6.365187 2.164640
v 3.577262 5.803135 -2.176522
v 3.781992 5.457548 -2.176522
v 0.134820 6.140033 2.164639
v 3.781991 5.692673 -2.176523
v 0.155831 6.317667 2.164640
v -3.589899 5.535353 -2.022112
v -7.324673 3.851660 2.164640
v -7.490932 4.004364 2.164641
v -3.756157 5.687658 -2.022112
v -3.468852 5.595621 -2.022112
v -7.157308 3.944110 2.164640
v -3.533283 5.768268 -2.022114
v -7.268057 4.084573 2.164641
v 0.000620 6.179828 -2.176522
v -3.597548 5.550397 2.164639
v -3.678442 5.716815 2.164640
v -0.080273 6.357364 -2.176522
v 0.230856 6.180772 -2.176522
v -3.428477 5.622967 2.164639
v 0.149962 6.367314 -2.176523
v -3.469862 5.796987 2.164640
vn 0.0000 -0.0000 -1.0000
vn -0.7490 0.6626 0.0000
vn -0.4068 0.9135 0.0000
vn 0.0000 -0.0000 1.0000
vn 0.7609 -0.6489 0.0000
vn 0.4068 -0.9135 -0.0000
vn 0.1605 -0.9870 0.0000
vn -0.1605 0.9870 0.0000
vn 1.0000 -0.0000 -0.0000
vn 0.4749 -0.8801 -0.0000
vn -1.0000 0.0000 0.0000
vn -0.4749 0.8801 -0.0000
vn 0.0020 1.0000 0.0001
vn -1.0000 0.0000 -0.0023
vn -0.0020 -1.0000 -0.0001
vn 1.0000 -0.0000 0.0023
vn -0.4099 0.9121 -0.0000
vn 0.4099 -0.9121 0.0000
vn 0.0000 1.0000 0.0000
vn -0.0000 -1.0000 0.0000
vn -0.0029 -0.0000 1.0000
vn 0.1608 -0.9870 -0.0020
vn 0.0029 -0.0000 -1.0000
vn -0.1609 0.9870 0.0000
vn 0.7490 0.6626 -0.0000
vn 0.4068 0.9135 -0.0000
vn -0.7609 -0.6489 0.0000
vn -0.4068 -0.9135 0.0000
vn -0.1604 -0.9871 -0.0019
vn 0.1604 0.9871 0.0019
vn -0.4748 -0.8801 0.0000
vn 0.4748 0.8801 -0.0000
vn 0.4099 0.9121 -0.0000
vn -0.4099 -0.9121 0.0000
vn -0.1608 -0.9870 0.0020
vn 0.1608 0.9870 -0.0020
vn -0.0478 -0.0000 -0.9989
vn -0.0479 -0.0000 -0.9989
vn 0.7440 -0.6682 0.0000
vn -0.7410 0.6715 0.0000
vn 0.8517 -0.5241 0.0000
vn -0.8493 0.5279 0.0000
vn -0.7440 -0.6682 0.0000
vn 0.7410 0.6715 0.0000
vn -0.8517 -0.5241 0.0000
vn 0.8485 0.5291 0.0000
vn 0.8487 0.5288 0.0000
vn -0.7541 -0.0000 -0.6567
vn -0.3877 -0.9215 0.0225
vn 0.7453 -0.0379 0.6657
vn 0.4735 0.8776 0.0743
vn -0.7675 -0.0000 -0.6411
vn -0.2498 -0.9657 -0.0709
vn 0.7631 -0.0388 0.6451
vn 0.3547 0.9193 0.1706
vn -0.5026 -0.5479 -0.6687
vn 0.4670 -0.8820 0.0627
vn 0.6270 0.3508 0.6956
vn -0.3384 0.9380 0.0753
vn -0.7024 -0.3304 -0.6305
vn 0.1810 -0.9833 0.0169
vn 0.7267 0.2464 0.6413
vn -0.2011 0.9791 -0.0306
usemtl Base
s 1
f 1//1 2//1 3//1 4//1
f 5//2 6//2 2//2 1//2
f 7//3 8//3 9//3 10//3
f 10//1 9//1 11//1 12//1
f 13//4 14//4 6//4 5//4
f 4//5 3//5 14//5 13//5
f 12//6 11//6 15//6 16//6
f 16//4 15//4 8//4 7//4
f 11//1 9//1 17//1 18//1
f 19//1 20//1 21//1 22//1
f 23//4 24//4 25//4 26//4
f 18//7 19//7 24//7 23//7
f 17//1 20//1 19//1 18//1
f 26//8 25//8 20//8 17//8
f 27//9 12//9 10//9 28//9
f 29//10 3//10 12//10 27//10
f 30//11 2//11 3//11 29//11
f 28//12 10//12 2//12 30//12
f 31//13 21//13 20//13 32//13
f 32//14 20//14 19//14 33//14
f 33//15 19//15 22//15 34//15
f 34//16 22//16 21//16 31//16
f 35//17 17//17 9//17 36//17
f 36//11 9//11 11//11 37//11
f 37//18 11//18 18//18 38//18
f 38//9 18//9 17//9 35//9
f 39//19 40//19 41//19 42//19
f 43//20 44//20 45//20 46//20
f 47//20 48//20 44//20 43//20
f 40//1 47//1 43//1 41//1
f 48//4 39//4 42//4 44//4
f 49//19 50//19 51//19 52//19
f 44//4 42//4 49//4 45//4
f 42//19 41//19 50//19 49//19
f 41//1 43//1 46//1 50//1
f 53//11 54//11 52//11 51//11
f 45//4 49//4 52//4 54//4
f 50//1 46//1 53//1 51//1
f 46//20 45//20 54//20 53//20
f 2//1 10//1 12//1 3//1
f 55//1 56//1 57//1 58//1
f 59//2 30//2 56//2 55//2
f 28//3 36//3 60//3 61//3
f 61//1 60//1 62//1 63//1
f 64//4 29//4 30//4 59//4
f 58//5 57//5 29//5 64//5
f 63//6 62//6 37//6 27//6
f 27//4 37//4 36//4 28//4
f 38//21 33//21 65//21 35//21
f 66//22 67//22 33//22 38//22
f 68//23 69//23 67//23 66//23
f 35//24 65//24 69//24 68//24
f 37//4 38//4 35//4 36//4
f 28//4 30//4 29//4 27//4
f 33//4 34//4 31//4 32//4 65//4
f 70//4 71//4 72//4 73//4
f 74//25 75//25 71//25 70//25
f 76//26 77//26 78//26 79//26
f 79//4 78//4 80//4 81//4
f 82//1 83//1 75//1 74//1
f 73//27 72//27 83//27 82//27
f 81//28 80//28 84//28 85//28
f 85//1 84//1 77//1 76//1
f 80//4 78//4 86//4 87//4
f 88//23 89//23 90//23 91//23
f 87//29 34//29 89//29 88//29
f 86//4 31//4 34//4 87//4
f 91//30 90//30 31//30 86//30
f 92//11 81//11 79//11 93//11
f 94//31 72//31 81//31 92//31
f 95//9 71//9 72//9 94//9
f 93//32 79//32 71//32 95//32
f 96//33 86//33 78//33 97//33
f 97//9 78//9 80//9 98//9
f 98//34 80//34 87//34 99//34
f 99//11 87//11 86//11 96//11
f 40//19 39//19 100//19 101//19
f 102//20 103//20 104//20 105//20
f 48//20 47//20 103//20 102//20
f 39//4 48//4 102//4 100//4
f 47//1 40//1 101//1 103//1
f 106//19 107//19 108//19 109//19
f 103//1 101//1 106//1 104//1
f 101//19 100//19 107//19 106//19
f 100//4 102//4 105//4 107//4
f 104//1 106//1 109//1 110//1
f 107//4 105//4 111//4 108//4
f 105//20 104//20 110//20 111//20
f 71//4 79//4 81//4 72//4
f 112//4 113//4 114//4 115//4
f 116//25 95//25 113//25 112//25
f 93//26 97//26 117//26 118//26
f 118//4 117//4 119//4 120//4
f 121//1 94//1 95//1 116//1
f 115//27 114//27 94//27 121//27
f 120//28 119//28 98//28 92//28
f 92//1 98//1 97//1 93//1
f 99//23 22//23 21//23 96//23
f 122//35 123//35 22//35 99//35
f 124//21 125//21 123//21 122//21
f 96//36 21//36 125//36 124//36
f 98//1 99//1 96//1 97//1
f 93//1 95//1 94//1 92//1
f 27//4 29//4 126//4 127//4
f 63//9 27//9 127//9 128//9
f 29//11 57//11 129//11 126//11
f 38//4 37//4 130//4 131//4
f 66//9 38//9 131//9 132//9
f 37//11 62//11 133//11 130//11
f 89//9 34//9 134//9 135//9
f 33//11 67//11 136//11 137//11
f 34//4 33//4 137//4 134//4
f 87//11 88//11 138//11 139//11
f 84//9 80//9 140//9 141//9
f 87//4 139//4 140//4 80//4
f 72//4 81//4 142//4 143//4
f 81//11 85//11 144//11 142//11
f 83//9 72//9 143//9 145//9
f 85//1 83//1 145//1 144//1
f 88//1 84//1 141//1 138//1
f 135//37 136//37 67//37 89//37
f 132//1 133//1 62//1 66//1
f 57//1 63//1 128//1 129//1
f 16//4 14//4 146//4 147//4
f 12//9 16//9 147//9 148//9
f 14//11 3//11 149//11 146//11
f 23//4 15//4 150//4 151//4
f 18//9 23//9 151//9 152//9
f 15//11 11//11 153//11 150//11
f 154//9 155//9 156//9 157//9
f 158//11 159//11 160//11 161//11
f 155//4 158//4 161//4 156//4
f 122//11 99//11 162//11 163//11
f 98//9 119//9 164//9 165//9
f 122//4 163//4 164//4 119//4
f 114//4 120//4 166//4 167//4
f 120//11 92//11 168//11 166//11
f 94//9 114//9 167//9 169//9
f 92//1 94//1 169//1 168//1
f 99//1 98//1 165//1 162//1
f 157//38 160//38 159//38 154//38
f 152//1 153//1 11//1 18//1
f 3//1 12//1 148//1 149//1
f 170//1 171//1 172//1 173//1
f 174//4 175//4 176//4 177//4
f 178//4 179//4 180//4 181//4
f 182//1 183//1 184//1 185//1
f 174//39 177//39 182//39 185//39
f 176//40 175//40 184//40 183//40
f 178//41 181//41 170//41 173//41
f 180//42 179//42 172//42 171//42
f 186//4 187//4 188//4 189//4
f 190//1 191//1 192//1 193//1
f 194//1 195//1 196//1 197//1
f 198//4 199//4 200//4 201//4
f 190//43 193//43 198//43 201//43
f 192//44 191//44 200//44 199//44
f 194//45 197//45 186//45 189//45
f 196//46 195//46 188//46 187//46
f 202//1 203//1 204//1 205//1
f 206//4 207//4 208//4 209//4
f 210//4 211//4 212//4 213//4
f 214//1 215//1 216//1 217//1
f 206//39 209//39 214//39 217//39
f 208//40 207//40 216//40 215//40
f 210//41 213//41 202//41 205//41
f 212//42 211//42 204//42 203//42
f 218//4 219//4 220//4 221//4
f 222//1 223//1 224//1 225//1
f 226//1 227//1 228//1 229//1
f 230//4 231//4 232//4 233//4
f 222//43 225//43 230//43 233//43
f 224//44 223//44 232//44 231//44
f 226//45 229//45 218//45 221//45
f 228//47 227//47 220//47 219//47
f 92//48 234//48 235//48 93//48
f 94//49 236//49 234//49 92//49
f 95//50 237//50 236//50 94//50
f 93//51 235//51 237//51 95//51
f 238//52 239//52 240//52 241//52
f 242//53 243//53 239//53 238//53
f 244//54 245//54 243//54 242//54
f 241//55 240//55 245//55 244//55
f 246//56 247//56 248//56 249//56
f 250//57 251//57 247//57 246//57
f 252//58 253//58 251//58 250//58
f 249//59 248//59 253//59 252//59
f 254//60 255//60 256//60 257//60
f 258//61 259//61 255//61 254//61
f 260//62 261//62 259//62 258//62
f 257//63 256//63 261//63 260//63
