# Blender v2.79 (sub 0) OBJ File: 'untitled.blend'
# www.blender.org
mtllib bowstringtrussbridge.mtl
o Cube_Cube.002
v 7.495929 3.773883 2.186619
v 7.495929 4.009007 2.186620
v 7.291200 4.119470 1.981892
v 3.704823 5.716436 1.981891
v 7.291202 3.884346 2.186619
v 10.886518 -0.201920 1.981892
v 7.291200 4.119470 2.186620
v 11.116241 -0.083342 2.186620
v 3.704823 5.481311 1.981891
v 3.500093 5.573323 1.981892
v 0.061873 6.132320 1.981746
v 10.886519 -0.201921 2.186619
v 0.061873 6.132320 2.186474
v 7.495929 4.009007 1.981890
v 0.061872 6.367445 2.186474
v 0.061872 6.367445 1.981745
v 3.500093 5.808447 1.981892
v 11.116241 -0.083342 1.981892
v -0.132902 6.366624 -2.197951
v -0.142857 6.366623 2.186474
v 0.071826 6.366624 -2.197951
v 0.071826 6.131500 -2.197951
v -0.142856 6.131499 2.186473
v -0.132902 6.131500 -2.197951
v 3.500093 5.808447 2.186620
v 3.704823 5.716436 2.186620
v 3.500095 5.573324 2.186619
v -0.039658 -0.250928 -2.230481
v -0.039654 -0.250927 2.206654
v -0.039658 -0.045691 -2.230481
v -0.039654 -0.045690 2.206654
v 3.612593 -0.045690 2.206654
v 3.612592 -0.045690 -2.230481
v 3.612593 -0.250927 2.206654
v 3.612592 -0.250927 -2.230481
v 7.395704 -0.250927 -2.230482
v 7.395705 -0.250927 2.206653
v 7.395704 -0.045690 -2.230482
v 7.395705 -0.045690 2.206653
v 11.153517 -0.045690 2.206652
v 11.153516 -0.045690 -2.230483
v 11.153517 -0.250927 2.206652
v 11.153516 -0.250927 -2.230483
v 7.495929 3.773882 -1.983271
v 7.495929 4.009007 -1.983270
v 7.291200 4.119471 -2.187998
v 3.704823 5.716436 -2.187999
v 7.291202 3.884346 -1.983271
v 10.886518 -0.201920 -2.187998
v 7.291200 4.119471 -1.983270
v 7.495930 3.773882 -2.187998
v 11.116241 -0.083342 -1.983270
v 3.704823 5.481312 -2.187998
v 7.291200 3.884346 -2.187998
v 3.500095 5.573324 -2.187998
v 10.886519 -0.201921 -1.983271
v 0.071826 6.132321 -1.993223
v 7.495929 4.009007 -2.187999
v 0.071826 6.367445 -1.993223
v 0.071826 6.367445 -2.197952
v 3.500095 5.808448 -2.187998
v 11.116241 -0.083342 -2.187998
v 3.500095 5.808448 -1.983270
v 3.704823 5.716436 -1.983270
v 3.704823 5.481312 -1.983271
v 3.500097 5.573324 -1.983271
v -7.566961 3.773882 -2.198095
v -7.566961 4.009007 -2.198096
v -7.362231 4.119470 -1.993368
v -3.775854 5.716435 -1.993368
v -7.362234 3.884345 -2.198096
v -10.957549 -0.201921 -1.993368
v -7.362232 4.119470 -2.198096
v -7.566961 3.773882 -1.993368
v -11.187272 -0.083342 -2.198096
v -3.775855 5.481311 -1.993369
v -7.362231 3.884345 -1.993369
v -3.571125 5.573322 -1.993369
v -0.132906 6.132320 -1.983416
v -10.957551 -0.201921 -2.198095
v -7.566960 4.009007 -1.993368
v -0.132904 6.367445 -1.983415
v -3.571125 5.808447 -1.993369
v -11.187272 -0.083342 -1.993368
v -3.571125 5.808447 -2.198097
v -3.775854 5.716435 -2.198097
v -3.775854 5.481311 -2.198096
v -3.571127 5.573323 -2.198096
v 7.291200 -0.085860 -2.187998
v 7.495929 -0.085762 -1.983271
v 7.495930 -0.085762 -2.187998
v 7.291202 -0.085860 -1.983271
v -3.683625 -0.045691 -2.230480
v -3.683624 -0.045690 2.206655
v -3.683625 -0.250928 -2.230480
v -3.683624 -0.250927 2.206655
v -7.466736 -0.250927 2.206657
v -7.466738 -0.250928 -2.230478
v -7.466736 -0.045690 2.206657
v -7.466738 -0.045691 -2.230478
v -11.224548 -0.045691 -2.230477
v -11.224547 -0.045690 2.206658
v -11.224548 -0.250928 -2.230477
v -11.224547 -0.250927 2.206658
v -7.566960 4.009007 1.971793
v -7.362231 4.119470 2.176521
v -3.775854 5.716435 2.176522
v -10.957549 -0.201921 2.176522
v -7.362231 4.119470 1.971793
v -7.566961 3.773882 2.176521
v -11.187272 -0.083342 1.971794
v -3.775855 5.481311 2.176521
v -3.571127 5.573323 2.176521
v -10.957551 -0.201921 1.971794
v -0.142857 6.132320 1.981745
v -0.142857 6.367445 1.981745
v -3.571127 5.808448 2.176521
v -11.187272 -0.083342 2.176522
v -3.571127 5.808448 1.971792
v -3.775854 5.716435 1.971793
v -3.775854 5.481311 1.971794
v -3.571129 5.573323 1.971794
v 3.704823 -0.054186 -2.187998
v 3.500095 -0.053254 -2.187998
v 3.704823 -0.054186 -1.983271
v 3.500097 -0.053254 -1.983271
v 0.071826 -0.109030 -2.197951
v -0.132902 -0.109030 -2.197951
v 0.071826 -0.108209 -1.993223
v -0.132906 -0.108209 -1.983416
v -3.775855 -0.102035 -1.993369
v -3.571125 -0.086511 -1.993369
v -3.775854 -0.102035 -2.198096
v -3.571127 -0.086510 -2.198096
v -7.566961 -0.043992 -2.198095
v -7.362234 -0.037771 -2.198096
v -7.566961 -0.043992 -1.993368
v -7.362231 -0.037771 -1.993368
v 0.071826 6.131499 1.971939
v -0.132902 6.131499 1.971939
v 7.495930 3.773883 1.981892
v 7.291200 3.884346 1.981892
v 0.071826 6.132320 2.176666
v 3.704823 5.481311 2.186619
v -7.566961 3.773882 1.971795
v -7.362234 3.884345 1.971794
v -0.132906 6.132320 2.186474
v 7.291200 -0.085860 1.981892
v 7.495929 -0.085762 2.186619
v 7.495930 -0.085762 1.981892
v 7.291202 -0.085860 2.186619
v 3.704823 -0.054186 1.981892
v 3.500095 -0.053254 1.981892
v 3.704823 -0.054186 2.186619
v 3.500097 -0.053254 2.186619
v 0.071826 -0.109030 1.971939
v -0.132902 -0.109030 1.971939
v 0.071826 -0.108209 2.176666
v -0.132906 -0.108209 2.186474
v -3.775855 -0.102035 2.176521
v -3.571125 -0.086511 2.176521
v -3.775854 -0.102035 1.971794
v -3.571127 -0.086510 1.971794
v -7.566961 -0.043992 1.971795
v -7.362234 -0.037771 1.971794
v -7.566961 -0.043992 2.176522
v -7.362231 -0.037771 2.176522
v -7.400571 3.794631 2.171878
v -7.400571 4.050179 2.171878
v -7.400571 3.794631 1.982866
v -7.400571 4.050179 1.982866
v -3.822423 -0.189225 2.171878
v -3.687201 -0.047642 2.171878
v -3.822423 -0.189225 1.982866
v -3.687201 -0.047642 1.982866
v -3.617467 5.366636 2.171878
v -3.617467 5.761764 2.171878
v -3.617467 5.366636 1.982866
v -3.617467 5.761764 1.982866
v -0.202907 -0.182262 2.171878
v -0.012409 -0.038765 2.171878
v -0.202907 -0.182262 1.982866
v -0.012409 -0.038765 1.982866
v 7.404685 3.794631 1.982866
v 7.404685 4.050179 1.982866
v 7.404685 3.794631 2.171877
v 7.404685 4.050179 2.171877
v 3.826537 -0.189225 1.982866
v 3.691315 -0.047642 1.982866
v 3.826537 -0.189225 2.171878
v 3.691315 -0.047642 2.171878
v 3.621581 5.366636 1.982866
v 3.621581 5.742414 1.982866
v 3.621581 5.366636 2.171878
v 3.621581 5.742414 2.171878
v 0.207021 -0.182262 1.982867
v 0.016523 -0.038765 1.982867
v 0.207021 -0.182262 2.171878
v 0.016523 -0.038765 2.171878
v -7.400571 3.794630 -2.003332
v -7.400571 4.050179 -2.003332
v -7.400571 3.794631 -2.192343
v -7.400571 4.050179 -2.192343
v -3.822423 -0.189225 -2.003332
v -3.687201 -0.047642 -2.003332
v -3.822423 -0.189225 -2.192343
v -3.687201 -0.047642 -2.192343
v -3.617467 5.366636 -2.003332
v -3.617467 5.761765 -2.003332
v -3.617467 5.366636 -2.192343
v -3.617467 5.761765 -2.192343
v -0.202907 -0.182262 -2.003332
v -0.012409 -0.038765 -2.003332
v -0.202907 -0.182262 -2.192343
v -0.012409 -0.038765 -2.192343
v 7.404685 3.794630 -2.192344
v 7.404685 4.050179 -2.192343
v 7.404685 3.794631 -2.003332
v 7.404685 4.050179 -2.003332
v 3.826537 -0.189225 -2.192343
v 3.691315 -0.047642 -2.192343
v 3.826537 -0.189225 -2.003332
v 3.691315 -0.047642 -2.003332
v 3.621581 5.366636 -2.192343
v 3.621581 5.747415 -2.192343
v 3.621581 5.366636 -2.003332
v 3.621581 5.747415 -2.003332
v 0.207021 -0.182262 -2.192343
v 0.016523 -0.038765 -2.192343
v 0.207021 -0.182262 -2.003331
v 0.016523 -0.038765 -2.003331
v -3.765355 5.503580 -2.164640
v -3.786365 5.681214 -2.164641
v -3.581638 5.556552 -2.164640
v -3.581636 5.791677 -2.164641
v -7.362231 3.884345 2.176521
v -7.566960 4.009007 2.176522
v -0.134820 6.140033 -2.164640
v -0.155831 6.317667 -2.164641
v 0.048897 6.130061 -2.164640
v 0.048898 6.365186 -2.164641
v -3.577262 5.803136 2.176521
v -3.781992 5.457548 2.176521
v -3.577262 5.568011 2.176521
v -3.781991 5.692673 2.176522
v 7.157308 3.944110 -2.164640
v 7.268058 4.084573 -2.164641
v 7.324673 3.851660 -2.164640
v 7.490932 4.004364 -2.164641
v 3.756157 5.687659 2.022112
v 3.468852 5.595621 2.022112
v 3.589899 5.535353 2.022112
v 3.533283 5.768268 2.022113
v 3.428477 5.622967 -2.164640
v 3.469862 5.796986 -2.164641
v 3.597548 5.550397 -2.164640
v 3.678442 5.716815 -2.164641
v 0.080273 6.357364 2.176521
v -0.230856 6.180773 2.176521
v -0.000620 6.179828 2.176521
v -0.149962 6.367315 2.176522
vn -0.0000 -0.0000 1.0000
vn 0.7490 0.6626 0.0000
vn 0.4068 0.9135 0.0000
vn -0.0000 -0.0000 -1.0000
vn -0.7609 -0.6489 0.0000
vn -0.4068 -0.9135 -0.0000
vn -0.1605 -0.9870 0.0000
vn 0.1605 0.9870 0.0000
vn -1.0000 -0.0000 0.0000
vn -0.4748 -0.8801 0.0000
vn 1.0000 0.0000 0.0000
vn 0.4748 0.8801 0.0000
vn -0.0020 1.0000 -0.0001
vn 1.0000 0.0000 0.0023
vn 0.0020 -1.0000 0.0001
vn -1.0000 -0.0000 -0.0023
vn 0.4099 0.9121 0.0000
vn -0.4099 -0.9121 -0.0000
vn -0.0000 1.0000 -0.0000
vn -0.0000 -1.0000 -0.0000
vn 0.0029 -0.0000 -1.0000
vn -0.1608 -0.9870 0.0020
vn -0.0029 -0.0000 1.0000
vn 0.1609 0.9870 0.0000
vn -0.7490 0.6626 0.0000
vn -0.4068 0.9135 0.0000
vn 0.7609 -0.6489 -0.0000
vn 0.4068 -0.9135 0.0000
vn 0.1604 -0.9871 0.0019
vn -0.1604 0.9871 -0.0019
vn 0.4748 -0.8801 -0.0000
vn -0.4748 0.8801 0.0000
vn -0.4099 0.9121 -0.0000
vn 0.4099 -0.9121 0.0000
vn 0.1608 -0.9870 -0.0020
vn -0.1608 0.9870 0.0020
vn 0.0478 0.0000 0.9989
vn -0.7440 -0.6682 -0.0000
vn 0.7410 0.6715 0.0000
vn -0.8517 -0.5241 0.0000
vn 0.8493 0.5279 0.0000
vn 0.7440 -0.6682 0.0000
vn -0.7410 0.6715 0.0000
vn 0.8517 -0.5241 0.0000
vn -0.8485 0.5291 0.0000
vn -0.8487 0.5288 0.0000
vn 0.7541 -0.0000 0.6567
vn 0.3877 -0.9215 -0.0225
vn -0.7453 -0.0379 -0.6657
vn -0.4735 0.8776 -0.0743
vn 0.7675 -0.0000 0.6411
vn 0.2498 -0.9657 0.0709
vn -0.7631 -0.0388 -0.6451
vn -0.3547 0.9193 -0.1706
vn 0.5026 -0.5479 0.6687
vn -0.4670 -0.8820 -0.0627
vn -0.6270 0.3508 -0.6956
vn 0.3384 0.9380 -0.0753
vn 0.7024 -0.3304 0.6305
vn -0.1810 -0.9833 -0.0169
vn -0.7267 0.2464 -0.6413
vn 0.2011 0.9791 0.0306
usemtl Base
s off
f 8//1 2//1 1//1 12//1
f 18//2 14//2 2//2 8//2
f 3//3 4//3 26//3 7//3
f 7//1 26//1 144//1 5//1
f 6//4 141//4 14//4 18//4
f 12//5 1//5 141//5 6//5
f 5//6 144//6 9//6 142//6
f 142//4 9//4 4//4 3//4
f 144//1 26//1 25//1 27//1
f 13//1 15//1 20//1 23//1
f 10//4 11//4 16//4 17//4
f 27//7 13//7 11//7 10//7
f 25//1 15//1 13//1 27//1
f 17//8 16//8 15//8 25//8
f 54//9 5//9 7//9 46//9
f 51//10 1//10 5//10 54//10
f 58//11 2//11 1//11 51//11
f 46//12 7//12 2//12 58//12
f 19//13 20//13 15//13 21//13
f 21//14 15//14 13//14 22//14
f 22//15 13//15 23//15 24//15
f 24//16 23//16 20//16 19//16
f 61//17 25//17 26//17 47//17
f 47//11 26//11 144//11 53//11
f 53//18 144//18 27//18 55//18
f 55//9 27//9 25//9 61//9
f 30//19 31//19 32//19 33//19
f 34//20 35//20 36//20 37//20
f 29//20 28//20 35//20 34//20
f 31//1 29//1 34//1 32//1
f 28//4 30//4 33//4 35//4
f 38//19 39//19 40//19 41//19
f 35//4 33//4 38//4 36//4
f 33//19 32//19 39//19 38//19
f 32//1 34//1 37//1 39//1
f 42//11 43//11 41//11 40//11
f 36//4 38//4 41//4 43//4
f 39//1 37//1 42//1 40//1
f 37//20 36//20 43//20 42//20
f 2//1 7//1 5//1 1//1
f 52//1 45//1 44//1 56//1
f 62//2 58//2 45//2 52//2
f 46//3 47//3 64//3 50//3
f 50//1 64//1 65//1 48//1
f 49//4 51//4 58//4 62//4
f 56//5 44//5 51//5 49//5
f 48//6 65//6 53//6 54//6
f 54//4 53//4 47//4 46//4
f 55//21 22//21 60//21 61//21
f 66//22 57//22 22//22 55//22
f 63//23 59//23 57//23 66//23
f 61//24 60//24 59//24 63//24
f 53//4 55//4 61//4 47//4
f 46//4 58//4 51//4 54//4
f 22//4 24//4 19//4 21//4 60//4
f 75//4 68//4 67//4 80//4
f 84//25 81//25 68//25 75//25
f 69//26 70//26 86//26 73//26
f 73//4 86//4 87//4 71//4
f 72//1 74//1 81//1 84//1
f 80//27 67//27 74//27 72//27
f 71//28 87//28 76//28 77//28
f 77//1 76//1 70//1 69//1
f 87//4 86//4 85//4 88//4
f 78//23 79//23 82//23 83//23
f 88//29 24//29 79//29 78//29
f 85//4 19//4 24//4 88//4
f 83//30 82//30 19//30 85//30
f 236//11 71//11 73//11 106//11
f 110//31 67//31 71//31 236//31
f 237//9 68//9 67//9 110//9
f 106//32 73//32 68//32 237//32
f 117//33 85//33 86//33 107//33
f 107//9 86//9 87//9 112//9
f 112//34 87//34 88//34 113//34
f 113//11 88//11 85//11 117//11
f 31//19 30//19 93//19 94//19
f 95//20 96//20 97//20 98//20
f 28//20 29//20 96//20 95//20
f 30//4 28//4 95//4 93//4
f 29//1 31//1 94//1 96//1
f 99//19 100//19 101//19 102//19
f 96//1 94//1 99//1 97//1
f 94//19 93//19 100//19 99//19
f 93//4 95//4 98//4 100//4
f 97//1 99//1 102//1 104//1
f 100//4 98//4 103//4 101//4
f 98//20 97//20 104//20 103//20
f 68//4 73//4 71//4 67//4
f 111//4 105//4 145//4 114//4
f 118//25 237//25 105//25 111//25
f 106//26 107//26 120//26 109//26
f 109//4 120//4 121//4 146//4
f 108//1 110//1 237//1 118//1
f 114//27 145//27 110//27 108//27
f 146//28 121//28 112//28 236//28
f 236//1 112//1 107//1 106//1
f 113//23 23//23 20//23 117//23
f 122//35 115//35 23//35 113//35
f 119//21 116//21 115//21 122//21
f 117//36 20//36 116//36 119//36
f 112//1 113//1 117//1 107//1
f 106//1 237//1 110//1 236//1
f 54//4 51//4 91//4 89//4
f 48//9 54//9 89//9 92//9
f 51//11 44//11 90//11 91//11
f 55//4 53//4 123//4 124//4
f 66//9 55//9 124//9 126//9
f 53//11 65//11 125//11 123//11
f 79//9 24//9 128//9 130//9
f 22//11 57//11 129//11 127//11
f 24//4 22//4 127//4 128//4
f 88//11 78//11 132//11 134//11
f 76//9 87//9 133//9 131//9
f 88//4 134//4 133//4 87//4
f 67//4 71//4 136//4 135//4
f 71//11 77//11 138//11 136//11
f 74//9 67//9 135//9 137//9
f 77//1 74//1 137//1 138//1
f 78//1 76//1 131//1 132//1
f 130//37 129//37 57//37 79//37
f 126//1 125//1 65//1 66//1
f 44//1 48//1 92//1 90//1
f 142//4 141//4 150//4 148//4
f 5//9 142//9 148//9 151//9
f 141//11 1//11 149//11 150//11
f 10//4 9//4 152//4 153//4
f 27//9 10//9 153//9 155//9
f 9//11 144//11 154//11 152//11
f 147//9 140//9 157//9 159//9
f 139//11 143//11 158//11 156//11
f 140//4 139//4 156//4 157//4
f 122//11 113//11 161//11 163//11
f 112//9 121//9 162//9 160//9
f 122//4 163//4 162//4 121//4
f 145//4 146//4 165//4 164//4
f 146//11 236//11 167//11 165//11
f 110//9 145//9 164//9 166//9
f 236//1 110//1 166//1 167//1
f 113//1 112//1 160//1 161//1
f 159//37 158//37 143//37 147//37
f 155//1 154//1 144//1 27//1
f 1//1 5//1 151//1 149//1
f 180//1 181//1 177//1 176//1
f 170//4 171//4 175//4 174//4
f 178//4 179//4 183//4 182//4
f 172//1 173//1 169//1 168//1
f 170//38 174//38 172//38 168//38
f 175//39 171//39 169//39 173//39
f 178//40 182//40 180//40 176//40
f 183//41 179//41 177//41 181//41
f 196//4 197//4 193//4 192//4
f 186//1 187//1 191//1 190//1
f 194//1 195//1 199//1 198//1
f 188//4 189//4 185//4 184//4
f 186//42 190//42 188//42 184//42
f 191//43 187//43 185//43 189//43
f 194//44 198//44 196//44 192//44
f 199//45 195//45 193//45 197//45
f 212//1 213//1 209//1 208//1
f 202//4 203//4 207//4 206//4
f 210//4 211//4 215//4 214//4
f 204//1 205//1 201//1 200//1
f 202//38 206//38 204//38 200//38
f 207//39 203//39 201//39 205//39
f 210//40 214//40 212//40 208//40
f 215//41 211//41 209//41 213//41
f 228//4 229//4 225//4 224//4
f 218//1 219//1 223//1 222//1
f 226//1 227//1 231//1 230//1
f 220//4 221//4 217//4 216//4
f 218//42 222//42 220//42 216//42
f 223//43 219//43 217//43 221//43
f 226//44 230//44 228//44 224//44
f 231//46 227//46 225//46 229//46
f 236//47 234//47 235//47 106//47
f 110//48 232//48 234//48 236//48
f 237//49 233//49 232//49 110//49
f 106//50 235//50 233//50 237//50
f 244//51 240//51 241//51 242//51
f 243//52 238//52 240//52 244//52
f 245//53 239//53 238//53 243//53
f 242//54 241//54 239//54 245//54
f 252//55 248//55 249//55 250//55
f 251//56 246//56 248//56 252//56
f 253//57 247//57 246//57 251//57
f 250//58 249//58 247//58 253//58
f 260//59 256//59 257//59 258//59
f 259//60 254//60 256//60 260//60
f 261//61 255//61 254//61 259//61
f 258//62 257//62 255//62 261//62
