# Blender v2.79 (sub 0) OBJ File: 'untitled.blend'
# www.blender.org
mtllib circulararchbridge.mtl
o Cylinder
v -5.489351 -0.560962 -1.553092
v -5.489351 -0.560962 1.553093
v -5.018229 -0.842304 -1.553092
v -5.018229 -0.842304 1.553093
v -4.823083 -1.521525 -1.553093
v -4.823083 -1.521525 1.553092
v -6.155620 -1.521525 -1.553093
v -6.155620 -1.521525 1.553092
v -5.960473 -0.842304 -1.553092
v -5.960473 -0.842304 1.553093
v -4.823866 -3.302433 -1.553092
v -4.823866 -3.302433 1.553093
v -6.155620 -5.047062 -1.553093
v -6.155620 -5.047062 1.553092
v -4.824648 -0.035188 -1.553092
v -4.824648 -0.035188 1.553093
v -6.403628 -0.035188 -1.553092
v -6.403628 -0.035188 1.553093
v -3.910371 -0.560962 -1.553092
v -3.910371 -0.560962 1.553093
v -3.439249 -0.842304 -1.553092
v -3.439249 -0.842304 1.553093
v -3.244103 -1.521525 -1.553093
v -3.244103 -1.521525 1.553092
v -4.576639 -1.521525 -1.553093
v -4.576639 -1.521525 1.553092
v -4.381494 -0.842304 -1.553092
v -4.381494 -0.842304 1.553093
v -3.244885 -2.388226 -1.553092
v -3.244885 -2.388226 1.553093
v -4.576639 -3.302433 -1.553092
v -4.576639 -3.302433 1.553093
v -3.245668 -0.035188 -1.553092
v -3.245668 -0.035188 1.553093
v -2.331391 -0.560962 -1.553092
v -2.331391 -0.560962 1.553093
v -1.860268 -0.842304 -1.553092
v -1.860268 -0.842304 1.553093
v -1.665123 -1.521525 -1.553093
v -1.665123 -1.521525 1.553092
v -2.997659 -1.521525 -1.553093
v -2.997659 -1.521525 1.553092
v -2.802514 -0.842304 -1.553092
v -2.802514 -0.842304 1.553093
v -1.665905 -2.034925 -1.553092
v -1.665905 -2.034925 1.553093
v -2.997659 -2.388226 -1.553093
v -2.997659 -2.388226 1.553093
v -1.666687 -0.035188 -1.553092
v -1.666687 -0.035188 1.553093
v -0.752410 -0.560962 -1.553092
v -0.752410 -0.560962 1.553093
v -0.281289 -0.842304 -1.553092
v -0.281289 -0.842304 1.553093
v -0.086143 -1.521525 -1.553093
v -0.086143 -1.521525 1.553092
v -1.418679 -1.521525 -1.553093
v -1.418679 -1.521525 1.553092
v -1.223534 -0.842304 -1.553092
v -1.223534 -0.842304 1.553093
v -0.086926 -1.868944 -1.553092
v -0.086926 -1.868944 1.553093
v -1.418679 -2.034925 -1.553092
v -1.418679 -2.034925 1.553093
v -0.087708 -0.035188 -1.553092
v -0.087708 -0.035188 1.553093
v 0.826569 -0.560962 -1.553092
v 0.826569 -0.560962 1.553093
v 1.297692 -0.842304 -1.553092
v 1.297692 -0.842304 1.553093
v 1.492837 -1.521525 -1.553093
v 1.492837 -1.521525 1.553092
v 0.160301 -1.521525 -1.553093
v 0.160301 -1.521525 1.553092
v 0.355447 -0.842304 -1.553092
v 0.355447 -0.842304 1.553093
v 1.492054 -2.049539 -1.553092
v 1.492054 -2.049539 1.553093
v 0.160301 -1.868944 -1.553093
v 0.160301 -1.868944 1.553093
v 1.491273 -0.035188 -1.553092
v 1.491273 -0.035188 1.553093
v 2.405550 -0.560962 -1.553092
v 2.405550 -0.560962 1.553093
v 2.876672 -0.842304 -1.553092
v 2.876672 -0.842304 1.553093
v 3.071817 -1.521525 -1.553093
v 3.071817 -1.521525 1.553092
v 1.739282 -1.521525 -1.553093
v 1.739282 -1.521525 1.553092
v 1.934426 -0.842304 -1.553092
v 1.934426 -0.842304 1.553093
v 3.071034 -2.434688 -1.553092
v 3.071034 -2.434688 1.553093
v 1.739282 -2.049539 -1.553093
v 1.739282 -2.049539 1.553093
v 3.070251 -0.035188 -1.553092
v 3.070251 -0.035188 1.553093
v 3.984529 -0.560962 -1.553092
v 3.984529 -0.560962 1.553093
v 4.455652 -0.842304 -1.553092
v 4.455652 -0.842304 1.553093
v 4.650797 -1.521525 -1.553093
v 4.650797 -1.521525 1.553092
v 3.318261 -1.521525 -1.553093
v 3.318261 -1.521525 1.553092
v 3.513407 -0.842304 -1.553092
v 3.513407 -0.842304 1.553093
v 4.650014 -3.328234 -1.553092
v 4.650014 -3.328234 1.553093
v 3.318261 -2.434688 -1.553092
v 3.318261 -2.434688 1.553093
v 4.649231 -0.035188 -1.553092
v 4.649231 -0.035188 1.553093
v 5.563510 -0.560962 -1.553092
v 5.563510 -0.560962 1.553093
v 6.034633 -0.842304 -1.553092
v 6.034633 -0.842304 1.553093
v 6.229777 -1.521525 -1.553093
v 6.229777 -1.521525 1.553092
v 4.897241 -1.521525 -1.553093
v 4.897241 -1.521525 1.553092
v 5.092386 -0.842304 -1.553092
v 5.092386 -0.842304 1.553093
v 6.229777 -5.047062 -1.553093
v 6.229777 -5.047062 1.553092
v 4.897241 -3.328234 -1.553092
v 4.897241 -3.328234 1.553093
v 6.403656 -0.035188 -1.553092
v 6.403656 -0.035188 1.553093
v -4.695310 -3.468729 1.553092
v -4.695310 -3.468729 -1.553093
v 0.011912 -2.060109 1.553093
v 1.582788 -2.199836 1.553093
v 3.159281 -2.158645 -1.553093
v 3.159282 -2.158645 1.553092
v 4.719134 -3.065140 -1.553093
v 4.719136 -3.065140 1.553092
v 6.403656 -5.028484 -1.553094
v 6.403656 -5.028484 1.553091
v 0.011912 -1.656519 -1.553092
v 0.011912 -1.656519 1.553093
v -6.403628 -5.396261 -1.553093
v -6.403628 -5.396261 1.553092
v -1.558961 -2.199836 -1.553092
v -1.558961 -2.199836 1.553092
v 0.011912 -2.060110 -1.553092
v 6.403656 -5.396261 1.553091
v 6.403656 -5.396261 -1.553094
v 4.719136 -3.468729 1.553092
v 4.719134 -3.468729 -1.553093
v 3.159282 -2.562235 1.553092
v 3.159281 -2.562235 -1.553092
v 1.582788 -2.199836 -1.553092
v 1.582788 -1.796246 -1.553092
v 1.582788 -1.796246 1.553092
v -6.403628 -5.028484 -1.553093
v -6.403628 -5.028484 1.553092
v -4.695310 -3.065140 -1.553093
v -4.695310 -3.065140 1.553092
v -3.135455 -2.158645 -1.553092
v -3.135455 -2.158645 1.553092
v -1.558961 -1.796246 -1.553092
v -1.558961 -1.796246 1.553092
v -3.135455 -2.562235 -1.553092
v -3.135455 -2.562235 1.553092
v -6.871394 -0.035188 1.553093
v -6.871394 -0.035188 -1.553092
v 6.871421 -0.035188 1.553093
v 6.871421 -0.035188 -1.553092
v -6.871394 -5.396261 1.553092
v -6.871394 -5.396261 -1.553093
v 6.871421 -5.396261 -1.553094
v 6.871421 -5.396261 1.553091
v -6.403628 -5.400288 1.553092
v -6.403628 -5.400288 -1.553093
v 6.403656 -5.400288 -1.553094
v 6.403656 -5.400288 1.553091
v -6.871394 -5.400288 1.553092
v -6.871394 -5.400288 -1.553093
v 6.871421 -5.400288 -1.553094
v 6.871421 -5.400288 1.553091
vn -0.5127 -0.8586 0.0000
vn -0.9611 -0.2761 0.0000
vn 0.9611 -0.2761 0.0000
vn 0.5127 -0.8586 0.0000
vn 1.0000 0.0000 0.0000
vn -1.0000 0.0004 0.0000
vn 0.0000 0.0000 -1.0000
vn 0.0000 1.0000 0.0000
vn -0.0000 0.0000 1.0000
vn -1.0000 0.0009 0.0000
vn -1.0000 -0.0002 0.0000
vn -1.0000 0.0015 0.0000
vn -1.0000 -0.0003 0.0000
vn -1.0000 0.0023 0.0000
vn -1.0000 -0.0004 0.0000
vn -1.0000 0.0000 0.0000
vn 0.0886 0.9961 -0.0000
vn 0.2240 0.9746 -0.0000
vn 0.5025 0.8646 -0.0000
vn 0.7589 0.6512 -0.0000
vn 0.0886 -0.9961 0.0000
vn 0.2240 -0.9746 0.0000
vn 0.5025 -0.8646 0.0000
vn 0.7484 -0.6633 0.0000
vn -0.7530 -0.6580 0.0000
vn -0.5025 -0.8646 0.0000
vn -0.2240 -0.9746 0.0000
vn -0.0886 -0.9961 0.0000
vn -0.7544 0.6564 0.0000
vn -0.5025 0.8646 0.0000
vn -0.2240 0.9746 0.0000
vn -0.0886 0.9961 0.0000
vn 0.0000 -1.0000 0.0000
usemtl Concrete
s off
f 1//1 3//1 4//1 2//1
f 3//2 5//2 6//2 4//2
f 7//3 9//3 10//3 8//3
f 9//4 1//4 2//4 10//4
f 7//5 8//5 14//5 13//5
f 6//6 5//6 11//6 12//6
f 149//7 129//7 170//7 173//7
f 15//8 17//8 18//8 16//8
f 9//7 17//7 1//7
f 9//7 7//7 17//7
f 17//7 7//7 143//7
f 13//7 143//7 7//7
f 14//9 8//9 144//9
f 144//9 8//9 18//9
f 8//9 10//9 18//9
f 10//9 2//9 18//9
f 19//1 21//1 22//1 20//1
f 21//2 23//2 24//2 22//2
f 25//3 27//3 28//3 26//3
f 27//4 19//4 20//4 28//4
f 25//5 26//5 32//5 31//5
f 24//10 23//10 29//10 30//10
f 11//11 12//11 16//11 15//11
f 33//8 15//8 16//8 34//8
f 27//7 15//7 19//7
f 27//7 25//7 15//7
f 15//7 25//7 11//7
f 31//7 11//7 25//7
f 32//9 26//9 12//9
f 12//9 26//9 16//9
f 26//9 28//9 16//9
f 28//9 20//9 16//9
f 35//1 37//1 38//1 36//1
f 37//2 39//2 40//2 38//2
f 41//3 43//3 44//3 42//3
f 43//4 35//4 36//4 44//4
f 41//5 42//5 48//5 47//5
f 40//12 39//12 45//12 46//12
f 29//13 30//13 34//13 33//13
f 49//8 33//8 34//8 50//8
f 43//7 33//7 35//7
f 43//7 41//7 33//7
f 33//7 41//7 29//7
f 47//7 29//7 41//7
f 48//9 42//9 30//9
f 30//9 42//9 34//9
f 42//9 44//9 34//9
f 44//9 36//9 34//9
f 51//1 53//1 54//1 52//1
f 53//2 55//2 56//2 54//2
f 57//3 59//3 60//3 58//3
f 59//4 51//4 52//4 60//4
f 57//5 58//5 64//5 63//5
f 56//14 55//14 61//14 62//14
f 45//15 46//15 50//15 49//15
f 65//8 49//8 50//8 66//8
f 59//7 49//7 51//7
f 59//7 57//7 49//7
f 49//7 57//7 45//7
f 63//7 45//7 57//7
f 64//9 58//9 46//9
f 46//9 58//9 50//9
f 58//9 60//9 50//9
f 60//9 52//9 50//9
f 67//1 69//1 70//1 68//1
f 69//2 71//2 72//2 70//2
f 73//3 75//3 76//3 74//3
f 75//4 67//4 68//4 76//4
f 73//5 74//5 80//5 79//5
f 72//12 71//12 77//12 78//12
f 61//15 62//15 66//15 65//15
f 81//8 65//8 66//8 82//8
f 75//7 65//7 67//7
f 75//7 73//7 65//7
f 65//7 73//7 61//7
f 79//7 61//7 73//7
f 80//9 74//9 62//9
f 62//9 74//9 66//9
f 74//9 76//9 66//9
f 76//9 68//9 66//9
f 83//1 85//1 86//1 84//1
f 85//2 87//2 88//2 86//2
f 89//3 91//3 92//3 90//3
f 91//4 83//4 84//4 92//4
f 89//5 90//5 96//5 95//5
f 88//10 87//10 93//10 94//10
f 77//15 78//15 82//15 81//15
f 97//8 81//8 82//8 98//8
f 91//7 81//7 83//7
f 91//7 89//7 81//7
f 81//7 89//7 77//7
f 95//7 77//7 89//7
f 96//9 90//9 78//9
f 78//9 90//9 82//9
f 90//9 92//9 82//9
f 92//9 84//9 82//9
f 99//1 101//1 102//1 100//1
f 101//2 103//2 104//2 102//2
f 105//3 107//3 108//3 106//3
f 107//4 99//4 100//4 108//4
f 105//5 106//5 112//5 111//5
f 104//6 103//6 109//6 110//6
f 93//13 94//13 98//13 97//13
f 113//8 97//8 98//8 114//8
f 107//7 97//7 99//7
f 107//7 105//7 97//7
f 97//7 105//7 93//7
f 111//7 93//7 105//7
f 112//9 106//9 94//9
f 94//9 106//9 98//9
f 106//9 108//9 98//9
f 108//9 100//9 98//9
f 115//1 117//1 118//1 116//1
f 117//2 119//2 120//2 118//2
f 121//3 123//3 124//3 122//3
f 123//4 115//4 116//4 124//4
f 121//5 122//5 128//5 127//5
f 120//16 119//16 125//16 126//16
f 109//11 110//11 114//11 113//11
f 129//8 113//8 114//8 130//8
f 123//7 113//7 115//7
f 123//7 121//7 113//7
f 113//7 121//7 109//7
f 127//7 109//7 121//7
f 128//9 122//9 110//9
f 110//9 122//9 114//9
f 122//9 124//9 114//9
f 124//9 116//9 114//9
f 16//9 4//9 6//9
f 2//9 4//9 16//9
f 18//9 2//9 16//9
f 16//9 20//9 34//9
f 20//9 22//9 34//9
f 22//9 24//9 34//9
f 34//9 36//9 50//9
f 36//9 38//9 50//9
f 38//9 40//9 50//9
f 50//9 52//9 66//9
f 52//9 54//9 66//9
f 54//9 56//9 66//9
f 66//9 68//9 82//9
f 82//9 68//9 70//9
f 70//9 72//9 82//9
f 98//9 86//9 88//9
f 98//9 84//9 86//9
f 84//9 98//9 82//9
f 114//9 98//9 100//9
f 114//9 100//9 102//9
f 104//9 114//9 102//9
f 130//9 118//9 120//9
f 130//9 116//9 118//9
f 116//9 130//9 114//9
f 172//7 143//7 176//7 180//7
f 120//9 126//9 148//9
f 120//9 148//9 130//9
f 158//9 144//9 131//9 160//9
f 156//17 155//17 141//17 142//17
f 136//9 152//9 150//9 138//9
f 136//18 135//18 155//18 156//18
f 138//19 137//19 135//19 136//19
f 164//9 146//9 133//9 142//9
f 140//20 139//20 137//20 138//20
f 159//7 132//7 143//7 157//7
f 145//21 147//21 133//21 146//21
f 137//7 151//7 153//7 135//7
f 165//22 145//22 146//22 166//22
f 160//9 131//9 166//9 162//9
f 132//23 165//23 166//23 131//23
f 138//9 150//9 148//9 140//9
f 143//24 132//24 131//24 144//24
f 148//25 150//25 151//25 149//25
f 161//7 165//7 132//7 159//7
f 150//26 152//26 153//26 151//26
f 139//7 149//7 151//7 137//7
f 152//27 134//27 154//27 153//27
f 142//9 133//9 134//9 156//9
f 134//28 133//28 147//28 154//28
f 162//9 166//9 146//9 164//9
f 157//29 158//29 160//29 159//29
f 155//7 154//7 147//7 141//7
f 159//30 160//30 162//30 161//30
f 163//7 145//7 165//7 161//7
f 156//9 134//9 152//9 136//9
f 161//31 162//31 164//31 163//31
f 135//7 153//7 154//7 155//7
f 163//32 164//32 142//32 141//32
f 141//7 147//7 145//7 163//7
f 119//7 139//7 125//7
f 139//7 119//7 129//7
f 119//7 117//7 129//7
f 129//7 117//7 115//7
f 115//7 113//7 129//7
f 99//7 97//7 113//7
f 113//7 101//7 99//7
f 103//7 101//7 113//7
f 83//7 81//7 97//7
f 97//7 85//7 83//7
f 87//7 85//7 97//7
f 69//7 81//7 71//7
f 69//7 67//7 81//7
f 65//7 81//7 67//7
f 53//7 65//7 55//7
f 53//7 51//7 65//7
f 49//7 65//7 51//7
f 37//7 49//7 39//7
f 37//7 35//7 49//7
f 33//7 49//7 35//7
f 21//7 33//7 23//7
f 21//7 19//7 33//7
f 15//7 33//7 19//7
f 3//7 15//7 5//7
f 3//7 1//7 15//7
f 15//7 1//7 17//7
f 172//16 171//16 167//16 168//16
f 170//5 169//5 174//5 173//5
f 18//8 17//8 168//8 167//8
f 148//16 149//16 177//16 178//16
f 17//7 143//7 172//7 168//7
f 129//8 130//8 169//8 170//8
f 130//9 148//9 174//9 169//9
f 144//9 18//9 167//9 171//9
f 178//33 177//33 181//33 182//33
f 176//33 175//33 179//33 180//33
f 173//5 174//5 182//5 181//5
f 143//5 144//5 175//5 176//5
f 149//7 173//7 181//7 177//7
f 144//9 171//9 179//9 175//9
f 171//16 172//16 180//16 179//16
f 174//9 148//9 178//9 182//9
