# Blender v2.79 (sub 0) OBJ File: ''
# www.blender.org
mtllib smalltrussbridge.mtl
o Cube_Cube.001
v -3.479353 -0.058620 -2.126340
v -3.479353 3.889111 -2.126339
v -3.479353 3.889111 -1.921610
v -3.479353 -0.058620 -1.921611
v -3.714479 3.889111 -1.921610
v -3.714479 -0.058620 -1.921611
v -3.714479 3.889111 -2.126339
v -3.714479 -0.058620 -2.126340
v 0.262178 3.889111 -2.126339
v 0.262178 3.889111 -1.921611
v -3.714478 3.653986 -1.921610
v 0.262178 3.653986 -1.921611
v -3.714479 3.653986 -2.126339
v 0.262178 3.653986 -2.126339
v 0.152414 0.029492 -2.126340
v -3.461284 3.813093 -2.126339
v -3.461283 3.813093 -1.921610
v 0.152414 0.029492 -1.921612
v -3.627542 3.646834 -1.921610
v -0.013845 -0.136766 -1.921612
v -3.627542 3.646835 -2.126339
v -0.013845 -0.136766 -2.126340
v 0.179171 -0.058620 -2.126340
v 0.179171 3.889111 -2.126339
v 0.179171 3.889111 -1.921611
v 0.179171 -0.058620 -1.921612
v -0.055955 3.889111 -1.921611
v -0.055955 -0.058620 -1.921612
v -0.055954 3.889111 -2.126339
v -0.055955 -0.058620 -2.126340
v 3.840123 3.889111 -2.126340
v 3.840123 3.889111 -1.921612
v -0.055954 3.653986 -1.921611
v 3.840123 3.653986 -1.921612
v -0.055954 3.653986 -2.126339
v 3.840123 3.653986 -2.126341
v 3.558026 3.878586 -2.126340
v 0.026184 0.069740 -2.126340
v 0.026184 0.069740 -1.921612
v 3.558026 3.878586 -1.921612
v 0.206301 -0.081395 -1.921612
v 3.738143 3.727450 -1.921612
v 0.206300 -0.081395 -2.126340
v 3.738143 3.727450 -2.126340
v 3.837695 -0.058620 -2.126341
v 3.837695 3.889111 -2.126340
v 3.837695 3.889111 -1.921612
v 3.837695 -0.058620 -1.921613
v 3.602570 3.889111 -1.921612
v 3.602570 -0.058620 -1.921613
v 3.602570 3.889111 -2.126340
v 3.602570 -0.058620 -2.126341
v 7.469464 -0.075163 -2.126342
v 7.469464 -0.075163 -1.921613
v 3.673864 3.722852 -1.921612
v 7.303204 -0.241421 -1.921613
v 3.673864 3.722853 -2.126340
v 7.303204 -0.241421 -2.126342
v -7.266246 -0.098599 -1.921611
v -7.266246 -0.098599 -2.126339
v -3.548221 3.722852 -2.126339
v -7.072104 -0.209014 -2.126339
v -3.548221 3.722853 -1.921611
v -7.072104 -0.209014 -1.921611
v -3.479352 -0.058620 1.933052
v -3.479352 3.889111 1.933053
v -3.479352 3.889111 2.137781
v -3.479352 -0.058620 2.137780
v -3.714478 3.889111 2.137781
v -3.714478 -0.058620 2.137780
v -3.714478 3.889111 1.933052
v -3.714478 -0.058620 1.933052
v 0.262179 3.889111 1.933052
v 0.262179 3.889111 2.137781
v -3.714478 3.653986 2.137780
v 0.262179 3.653986 2.137780
v -3.714478 3.653986 1.933053
v 0.262179 3.653986 1.933052
v 0.152415 0.029492 1.933051
v -3.461283 3.813093 1.933053
v -3.461283 3.813093 2.137781
v 0.152415 0.029492 2.137780
v -3.627542 3.646834 2.137780
v -0.013844 -0.136766 2.137780
v -3.627542 3.646835 1.933053
v -0.013844 -0.136766 1.933051
v 0.179172 -0.058620 1.933051
v 0.179172 3.889111 1.933052
v 0.179172 3.889111 2.137781
v 0.179172 -0.058620 2.137780
v -0.055954 3.889111 2.137781
v -0.055954 -0.058620 2.137780
v -0.055954 3.889111 1.933052
v -0.055954 -0.058620 1.933051
v 3.840124 3.889111 2.137780
v -0.055954 3.653986 2.137780
v 3.840124 3.653986 2.137779
v -0.055954 3.653986 1.933052
v 3.840124 3.653986 1.933052
v 3.558027 3.878586 1.933052
v 0.054042 0.046720 1.933051
v 0.054042 0.046720 2.137780
v 3.558027 3.878586 2.137780
v 0.234159 -0.104416 2.137780
v 3.738143 3.727450 2.137780
v 0.234159 -0.104416 1.933051
v 3.738143 3.727450 1.933052
v 3.837696 -0.058620 1.933051
v 3.837696 3.889111 1.933052
v 3.837696 3.889111 2.137780
v 3.837696 -0.058620 2.137779
v 3.602570 3.889111 2.137780
v 3.602570 -0.058620 2.137779
v 3.602571 3.889111 1.933052
v 3.602570 -0.058620 1.933051
v 7.469465 -0.075164 1.933050
v 3.840124 3.889111 1.933052
v 7.469465 -0.075164 2.137778
v 3.673865 3.722852 2.137780
v 7.303205 -0.241422 2.137779
v 3.673865 3.722853 1.933052
v 7.303205 -0.241422 1.933050
v -7.266244 -0.098599 2.137781
v -7.266244 -0.098599 1.933053
v -3.548220 3.722852 1.933052
v -7.072103 -0.209014 1.933053
v -3.548220 3.722853 2.137781
v -7.072103 -0.209014 2.137781
v -3.697341 3.889111 -2.003379
v -3.697341 3.889111 1.973278
v -3.492611 3.889111 1.973278
v -3.492613 3.889111 -2.003379
v -3.492611 3.653986 1.973277
v -3.492613 3.653986 -2.003380
v -3.697341 3.653986 1.973277
v -3.697341 3.653986 -2.003380
v -0.032893 3.889111 -2.003380
v -0.032893 3.889111 1.973278
v 0.171835 3.889111 1.973278
v 0.171835 3.889111 -2.003380
v 0.171835 3.653986 1.973277
v 0.171835 3.653986 -2.003381
v -0.032893 3.653986 1.973277
v -0.032893 3.653986 -2.003381
v 3.631012 3.889111 -2.003380
v 3.631012 3.889111 1.973277
v 3.835741 3.889111 1.973277
v 3.835740 3.889111 -2.003380
v 3.835741 3.653986 1.973276
v 3.835740 3.653986 -2.003381
v 3.631012 3.653986 1.973276
v 3.631012 3.653986 -2.003381
v -0.042954 3.889111 -1.933514
v 3.660630 3.889111 2.065374
v 3.805397 3.889111 1.920607
v 0.101810 3.889111 -2.078278
v 3.805397 3.653986 1.920607
v 0.101810 3.653986 -2.078279
v 3.660633 3.653986 2.065371
v -0.042954 3.653986 -1.933514
v -0.020093 3.889111 -2.091260
v -3.680975 3.889111 1.946756
v -3.524142 3.889111 2.078356
v 0.136737 3.889111 -1.959664
v -3.524142 3.653986 2.078356
v 0.136737 3.653986 -1.959664
v -3.680972 3.653986 1.946759
v -0.020093 3.653986 -2.091260
v 7.479587 -0.250927 -2.172916
v 7.479587 -0.045690 -2.172916
v 7.479587 -0.045690 2.157958
v 7.479587 -0.250927 2.157958
v -7.278189 -0.250927 -2.172916
v -7.278189 -0.250927 2.157958
v -7.278189 -0.045690 2.157958
v -7.278189 -0.045690 -2.172916
v -3.600478 -0.045690 2.157958
v -3.600478 -0.045690 -2.172916
v -3.600478 -0.250927 2.157958
v -3.600478 -0.250927 -2.172916
v 0.048682 -0.045690 2.157958
v 0.048682 -0.045690 -2.172916
v 0.048682 -0.250927 2.157958
v 0.048682 -0.250927 -2.172916
v 3.732418 -0.045690 2.157958
v 3.732418 -0.045690 -2.172916
v 3.732418 -0.250927 2.157958
v 3.732418 -0.250927 -2.172916
vn 1.0000 0.0000 0.0000
vn 0.0000 -0.0000 1.0000
vn -1.0000 0.0000 0.0000
vn 0.0000 0.0000 -1.0000
vn 0.0000 1.0000 0.0000
vn 0.0000 -1.0000 0.0000
vn 0.7232 0.6907 -0.0000
vn -0.7232 -0.6907 -0.0000
vn -0.7333 0.6799 0.0000
vn 0.7333 -0.6799 -0.0000
vn 0.7376 0.6753 0.0000
vn -0.7376 -0.6753 -0.0000
vn -0.7467 0.6651 0.0000
vn 0.7447 -0.6674 0.0000
vn -0.7380 0.6748 0.0000
vn 0.7380 -0.6748 0.0000
vn 0.7337 0.0000 -0.6795
vn -0.7337 -0.0000 0.6795
vn 0.7409 -0.0000 0.6717
vn -0.7409 -0.0000 -0.6717
usemtl Base
s off
f 1//1 2//1 3//1 4//1
f 4//2 3//2 5//2 6//2
f 6//3 5//3 7//3 8//3
f 8//4 7//4 2//4 1//4
f 9//5 7//5 5//5 10//5
f 10//2 5//2 11//2 12//2
f 12//6 11//6 13//6 14//6
f 14//4 13//4 7//4 9//4
f 15//7 16//7 17//7 18//7
f 18//2 17//2 19//2 20//2
f 20//8 19//8 21//8 22//8
f 22//4 21//4 16//4 15//4
f 23//1 24//1 25//1 26//1
f 26//2 25//2 27//2 28//2
f 28//3 27//3 29//3 30//3
f 30//4 29//4 24//4 23//4
f 31//5 29//5 27//5 32//5
f 32//2 27//2 33//2 34//2
f 34//6 33//6 35//6 36//6
f 36//4 35//4 29//4 31//4
f 37//9 38//9 39//9 40//9
f 40//2 39//2 41//2 42//2
f 42//10 41//10 43//10 44//10
f 44//4 43//4 38//4 37//4
f 45//1 46//1 47//1 48//1
f 48//2 47//2 49//2 50//2
f 50//3 49//3 51//3 52//3
f 52//4 51//4 46//4 45//4
f 53//11 31//11 32//11 54//11
f 54//2 32//2 55//2 56//2
f 56//12 55//12 57//12 58//12
f 58//4 57//4 31//4 53//4
f 59//13 5//13 7//13 60//13
f 60//4 7//4 61//4 62//4
f 62//14 61//14 63//14 64//14
f 64//2 63//2 5//2 59//2
f 65//1 66//1 67//1 68//1
f 68//2 67//2 69//2 70//2
f 70//3 69//3 71//3 72//3
f 72//4 71//4 66//4 65//4
f 73//5 71//5 69//5 74//5
f 74//2 69//2 75//2 76//2
f 76//6 75//6 77//6 78//6
f 78//4 77//4 71//4 73//4
f 79//7 80//7 81//7 82//7
f 82//2 81//2 83//2 84//2
f 84//8 83//8 85//8 86//8
f 86//4 85//4 80//4 79//4
f 87//1 88//1 89//1 90//1
f 90//2 89//2 91//2 92//2
f 92//3 91//3 93//3 94//3
f 94//4 93//4 88//4 87//4
f 117//5 93//5 91//5 95//5
f 95//2 91//2 96//2 97//2
f 97//6 96//6 98//6 99//6
f 99//4 98//4 93//4 117//4
f 100//15 101//15 102//15 103//15
f 103//2 102//2 104//2 105//2
f 105//16 104//16 106//16 107//16
f 107//4 106//4 101//4 100//4
f 108//1 109//1 110//1 111//1
f 111//2 110//2 112//2 113//2
f 113//3 112//3 114//3 115//3
f 115//4 114//4 109//4 108//4
f 116//11 117//11 95//11 118//11
f 118//2 95//2 119//2 120//2
f 120//12 119//12 121//12 122//12
f 122//4 121//4 117//4 116//4
f 123//13 69//13 71//13 124//13
f 124//4 71//4 125//4 126//4
f 126//14 125//14 127//14 128//14
f 128//2 127//2 69//2 123//2
f 129//5 130//5 131//5 132//5
f 132//1 131//1 133//1 134//1
f 134//6 133//6 135//6 136//6
f 136//3 135//3 130//3 129//3
f 137//5 138//5 139//5 140//5
f 140//1 139//1 141//1 142//1
f 142//6 141//6 143//6 144//6
f 144//3 143//3 138//3 137//3
f 145//5 146//5 147//5 148//5
f 148//1 147//1 149//1 150//1
f 150//6 149//6 151//6 152//6
f 152//3 151//3 146//3 145//3
f 153//5 154//5 155//5 156//5
f 156//17 155//17 157//17 158//17
f 158//6 157//6 159//6 160//6
f 160//18 159//18 154//18 153//18
f 161//5 162//5 163//5 164//5
f 164//19 163//19 165//19 166//19
f 166//6 165//6 167//6 168//6
f 168//20 167//20 162//20 161//20
f 186//5 182//5 181//5 185//5
f 169//1 170//1 171//1 172//1
f 172//6 187//6 188//6 169//6
f 171//2 185//2 187//2 172//2
f 170//5 186//5 185//5 171//5
f 169//4 188//4 186//4 170//4
f 182//5 178//5 177//5 181//5
f 188//4 184//4 182//4 186//4
f 187//6 183//6 184//6 188//6
f 185//2 181//2 183//2 187//2
f 178//5 176//5 175//5 177//5
f 183//6 179//6 180//6 184//6
f 181//2 177//2 179//2 183//2
f 184//4 180//4 178//4 182//4
f 173//3 174//3 175//3 176//3
f 177//2 175//2 174//2 179//2
f 179//6 174//6 173//6 180//6
f 180//4 173//4 176//4 178//4
