# Blender v2.79 (sub 0) OBJ File: 'untitled.blend'
# www.blender.org
mtllib trussbridge.mtl
o Cube_Cube.002
v -10.811357 -0.058620 -2.126340
v -10.811357 3.889111 -2.126338
v -10.811357 3.889111 -1.921609
v -10.811357 -0.058620 -1.921611
v -11.046482 3.889111 -1.921609
v -11.046482 -0.058620 -1.921611
v -11.046482 3.889111 -2.126338
v -11.046482 -0.058620 -2.126340
v -7.069825 3.889111 -2.126338
v -7.069825 3.889111 -1.921610
v -11.046481 3.653986 -1.921609
v -7.069825 3.653986 -1.921610
v -11.046482 3.653986 -2.126338
v -7.069825 3.653986 -2.126338
v -7.179589 0.029492 -2.126340
v -10.793287 3.813093 -2.126338
v -10.793286 3.813093 -1.921609
v -7.179589 0.029492 -1.921612
v -10.959545 3.646834 -1.921609
v -7.345848 -0.136766 -1.921612
v -10.959545 3.646835 -2.126338
v -7.345848 -0.136766 -2.126340
v -7.152832 -0.058620 -2.126340
v -7.152832 3.889111 -2.126338
v -7.152832 3.889111 -1.921610
v -7.152832 -0.058620 -1.921612
v -7.387958 3.889111 -1.921610
v -7.387958 -0.058620 -1.921612
v -7.387957 3.889111 -2.126338
v -7.387958 -0.058620 -2.126340
v -3.411301 3.889111 -2.126339
v -3.411301 3.889111 -1.921611
v -7.387957 3.653986 -1.921610
v -3.411301 3.653986 -1.921611
v -7.387957 3.653986 -2.126338
v -3.411301 3.653986 -2.126341
v -3.773977 3.878586 -2.126339
v -7.305819 0.069740 -2.126340
v -7.305819 0.069740 -1.921612
v -3.773977 3.878586 -1.921611
v -7.125702 -0.081395 -1.921612
v -3.593860 3.727450 -1.921611
v -7.125703 -0.081395 -2.126340
v -3.593860 3.727450 -2.126339
v -3.494308 -0.058620 -2.126341
v -3.494308 3.889111 -2.126339
v -3.494308 3.889111 -1.921611
v -3.494308 -0.058620 -1.921613
v -3.729433 3.889111 -1.921611
v -3.729433 -0.058620 -1.921613
v -3.729433 3.889111 -2.126339
v -3.729433 -0.058620 -2.126341
v 0.247224 3.889111 -2.126340
v 0.247224 3.889111 -1.921611
v -3.729433 3.653986 -1.921611
v 0.247224 3.653986 -1.921611
v -3.729433 3.653986 -2.126341
v 0.247224 3.653986 -2.126342
v 0.137461 0.029492 -2.126342
v -3.476238 3.813093 -2.126339
v -3.476238 3.813093 -1.921611
v 0.137461 0.029492 -1.921613
v -3.642497 3.646834 -1.921611
v -0.028799 -0.136766 -1.921613
v -3.642497 3.646835 -2.126341
v -0.028799 -0.136766 -2.126342
v 0.164217 -0.058620 -2.126342
v 0.164217 3.889111 -2.126340
v 0.164217 3.889111 -1.921611
v 0.164217 -0.058620 -1.921613
v -0.070909 3.889111 -1.921611
v -0.070909 -0.058620 -1.921613
v -0.070908 3.889111 -2.126340
v -0.070909 -0.058620 -2.126342
v 3.905748 3.889111 -2.126340
v 3.905748 3.889111 -1.921612
v -0.070908 3.653986 -1.921611
v 3.905748 3.653986 -1.921612
v -0.070908 3.653986 -2.126342
v 3.905748 3.653986 -2.126342
v 3.714677 3.728142 -2.126340
v -0.068924 0.018614 -2.126342
v -0.068924 0.018614 -1.921613
v 3.714677 3.728142 -1.921612
v 0.097335 -0.147646 -1.921613
v 3.880936 3.561884 -1.921612
v 0.097334 -0.147645 -2.126342
v 3.880936 3.561884 -2.126342
v 3.822742 -0.058620 -2.126342
v 3.822742 3.889111 -2.126340
v 3.822742 3.889111 -1.921612
v 3.822742 -0.058620 -1.921614
v 3.587616 3.889111 -1.921612
v 3.587616 -0.058620 -1.921614
v 3.587616 3.889111 -2.126340
v 3.587616 -0.058620 -2.126342
v 7.564274 3.889111 -2.126341
v 7.564274 3.889111 -1.921612
v 3.587616 3.653986 -1.921612
v 7.564274 3.653986 -1.921612
v 3.587616 3.653986 -2.126342
v 7.564274 3.653986 -2.126343
v 7.454510 0.029492 -2.126343
v 3.840811 3.813093 -2.126340
v 3.840811 3.813093 -1.921612
v 7.454510 0.029492 -1.921614
v 3.674553 3.646834 -1.921612
v 7.288250 -0.136766 -1.921614
v 3.674553 3.646835 -2.126342
v 7.288250 -0.136766 -2.126343
v 7.481266 -0.058620 -2.126343
v 7.481266 3.889111 -2.126341
v 7.481266 3.889111 -1.921612
v 7.481266 -0.058620 -1.921614
v 7.246140 3.889111 -1.921612
v 7.246140 -0.058620 -1.921614
v 7.246140 3.889111 -2.126341
v 7.246140 -0.058620 -2.126343
v 11.222797 3.889111 -2.126341
v 11.222797 3.889111 -1.921613
v 7.246140 3.653986 -1.921612
v 11.222797 3.653986 -1.921613
v 7.246140 3.653986 -2.126343
v 11.222797 3.653986 -2.126343
v 7.414383 -0.119332 -2.126343
v 11.197983 3.561882 -2.126343
v 11.197983 3.561882 -1.921613
v 7.414383 -0.119332 -1.921614
v 11.031723 3.728140 -1.921613
v 7.248123 0.046928 -1.921614
v 11.031725 3.728140 -2.126341
v 7.248123 0.046928 -2.126343
v 11.222797 -0.058620 -2.126343
v 11.222797 -0.058620 -1.921615
v 10.987671 3.889111 -1.921613
v 10.987671 -0.058620 -1.921615
v 10.987671 3.889111 -2.126341
v 10.987671 -0.058620 -2.126343
v 14.794291 -0.078207 -2.126344
v 14.794291 -0.078207 -1.921615
v 11.056540 3.722852 -1.921613
v 14.555704 -0.072668 -1.921615
v 11.056540 3.722853 -2.126341
v 14.555704 -0.072668 -2.126344
v -14.598249 -0.098599 -1.921611
v -14.598249 -0.098599 -2.126339
v -10.880224 3.722852 -2.126338
v -14.404107 -0.209014 -2.126339
v -10.880224 3.722853 -1.921610
v -14.404107 -0.209014 -1.921611
v -10.811356 -0.058620 1.933052
v -10.811356 3.889111 1.933054
v -10.811356 3.889111 2.137782
v -10.811356 -0.058620 2.137780
v -11.046481 3.889111 2.137782
v -11.046481 -0.058620 2.137780
v -11.046481 3.889111 1.933053
v -11.046481 -0.058620 1.933052
v -7.069824 3.889111 1.933053
v -7.069824 3.889111 2.137782
v -11.046481 3.653986 2.137780
v -7.069824 3.653986 2.137780
v -11.046481 3.653986 1.933054
v -7.069824 3.653986 1.933053
v -7.179588 0.029492 1.933051
v -10.793286 3.813093 1.933054
v -10.793286 3.813093 2.137782
v -7.179588 0.029492 2.137780
v -10.959545 3.646834 2.137780
v -7.345847 -0.136766 2.137780
v -10.959545 3.646835 1.933054
v -7.345847 -0.136766 1.933051
v -7.152831 -0.058620 1.933051
v -7.152831 3.889111 1.933053
v -7.152831 3.889111 2.137782
v -7.152831 -0.058620 2.137780
v -7.387957 3.889111 2.137782
v -7.387957 -0.058620 2.137780
v -7.387957 3.889111 1.933053
v -7.387957 -0.058620 1.933051
v -3.411300 3.889111 1.933053
v -3.411300 3.889111 2.137781
v -7.387957 3.653986 2.137780
v -3.411300 3.653986 2.137779
v -7.387957 3.653986 1.933053
v -3.411300 3.653986 1.933053
v -3.773976 3.878586 1.933053
v -7.277961 0.046720 1.933051
v -7.277961 0.046720 2.137780
v -3.773976 3.878586 2.137781
v -7.097844 -0.104416 2.137780
v -3.593860 3.727450 2.137781
v -7.097844 -0.104416 1.933051
v -3.593860 3.727450 1.933053
v -3.494307 -0.058620 1.933051
v -3.494307 3.889111 1.933053
v -3.494307 3.889111 2.137781
v -3.494307 -0.058620 2.137779
v -3.729433 3.889111 2.137781
v -3.729433 -0.058620 2.137779
v -3.729432 3.889111 1.933053
v -3.729433 -0.058620 1.933051
v 0.247225 3.889111 1.933052
v 0.247225 3.889111 2.137780
v -3.729432 3.653986 2.137779
v 0.247225 3.653986 2.137779
v -3.729432 3.653986 1.933053
v 0.247225 3.653986 1.933052
v 0.137462 0.029492 1.933050
v -3.476237 3.813093 1.933053
v -3.476237 3.813093 2.137781
v 0.137462 0.029492 2.137778
v -3.642496 3.646834 2.137779
v -0.028798 -0.136766 2.137779
v -3.642496 3.646835 1.933053
v -0.028798 -0.136766 1.933050
v 0.164218 -0.058620 1.933050
v 0.164218 3.889111 1.933052
v 0.164218 3.889111 2.137780
v 0.164218 -0.058620 2.137778
v -0.070908 3.889111 2.137781
v -0.070908 -0.058620 2.137779
v -0.070907 3.889111 1.933052
v -0.070908 -0.058620 1.933050
v 3.905749 3.889111 1.933051
v 3.905749 3.889111 2.137780
v -0.070907 3.653986 2.137779
v 3.905749 3.653986 2.137779
v -0.070907 3.653986 1.933052
v 3.905749 3.653986 1.933051
v 3.714678 3.728142 1.933051
v -0.068923 -0.057141 1.933050
v -0.068923 -0.057141 2.137779
v 3.714678 3.728142 2.137780
v 0.097336 -0.223401 2.137779
v 3.880937 3.561884 2.137779
v 0.097335 -0.223400 1.933050
v 3.880937 3.561884 1.933051
v 3.822742 -0.058620 1.933049
v 3.822742 3.889111 1.933051
v 3.822742 3.889111 2.137780
v 3.822742 -0.058620 2.137778
v 3.587617 3.889111 2.137780
v 3.587617 -0.058620 2.137778
v 3.587617 3.889111 1.933051
v 3.587617 -0.058620 1.933049
v 7.564274 3.889111 1.933051
v 7.564274 3.889111 2.137779
v 3.587617 3.653986 2.137779
v 7.564274 3.653986 2.137779
v 3.587617 3.653986 1.933051
v 7.564274 3.653986 1.933051
v 7.454510 0.029492 1.933049
v 3.840812 3.813093 1.933051
v 3.840812 3.813093 2.137780
v 7.454510 0.029492 2.137777
v 3.674554 3.646834 2.137779
v 7.288250 -0.136766 2.137777
v 3.674554 3.646835 1.933051
v 7.288250 -0.136766 1.933049
v 7.481266 -0.058620 1.933049
v 7.481266 3.889111 1.933051
v 7.481266 3.889111 2.137779
v 7.481266 -0.058620 2.137777
v 7.246140 3.889111 2.137779
v 7.246140 -0.058620 2.137777
v 7.246140 3.889111 1.933051
v 7.246140 -0.058620 1.933049
v 11.222797 3.889111 1.933050
v 11.222797 3.889111 2.137779
v 7.246140 3.653986 2.137779
v 11.222797 3.653986 2.137779
v 7.246140 3.653986 1.933051
v 11.222797 3.653986 1.933050
v 7.414383 -0.172281 1.933049
v 11.197983 3.561882 1.933050
v 11.197983 3.561882 2.137779
v 7.414383 -0.172281 2.137777
v 11.031723 3.728140 2.137779
v 7.248123 -0.006021 2.137777
v 11.031725 3.728140 1.933050
v 7.248123 -0.006021 1.933049
v 11.222797 -0.058620 1.933048
v 11.222797 -0.058620 2.137777
v 10.987671 3.889111 2.137779
v 10.987671 -0.058620 2.137777
v 10.987671 3.889111 1.933050
v 10.987671 -0.058620 1.933048
v 14.794291 -0.078207 1.933048
v 14.794291 -0.078207 2.137776
v 11.056540 3.722852 2.137779
v 14.555704 -0.072668 2.137776
v 11.056540 3.722853 1.933050
v 14.555704 -0.072668 1.933048
v -14.598248 -0.098599 2.137781
v -14.598248 -0.098599 1.933053
v -10.880223 3.722852 1.933053
v -14.404106 -0.209014 1.933053
v -10.880223 3.722853 2.137782
v -14.404106 -0.209014 2.137781
v -11.029345 3.889111 -2.003378
v -11.029345 3.889111 1.973279
v -10.824615 3.889111 1.973279
v -10.824616 3.889111 -2.003378
v -10.824615 3.653986 1.973278
v -10.824616 3.653986 -2.003380
v -11.029345 3.653986 1.973278
v -11.029345 3.653986 -2.003380
v -7.364896 3.889111 -2.003379
v -7.364896 3.889111 1.973279
v -7.160168 3.889111 1.973279
v -7.160168 3.889111 -2.003379
v -7.160168 3.653986 1.973278
v -7.160168 3.653986 -2.003381
v -7.364896 3.653986 1.973278
v -7.364896 3.653986 -2.003381
v -3.700991 3.889111 -2.003379
v -3.700991 3.889111 1.973278
v -3.496262 3.889111 1.973278
v -3.496263 3.889111 -2.003379
v -3.496262 3.653986 1.973277
v -3.496263 3.653986 -2.003381
v -3.700991 3.653986 1.973277
v -3.700991 3.653986 -2.003381
v -0.046187 3.889111 -2.003380
v -0.046187 3.889111 1.973278
v 0.158542 3.889111 1.973277
v 0.158541 3.889111 -2.003380
v 0.158542 3.653986 1.973276
v 0.158541 3.653986 -2.003381
v -0.046186 3.653986 1.973277
v -0.046187 3.653986 -2.003381
v 3.610048 3.889111 -2.003380
v 3.610048 3.889111 1.973277
v 3.814777 3.889111 1.973277
v 3.814776 3.889111 -2.003380
v 3.814777 3.653986 1.973276
v 3.814776 3.653986 -2.003381
v 3.610049 3.653986 1.973276
v 3.610048 3.653986 -2.003381
v 7.243046 3.889111 -2.003381
v 7.243044 3.889111 1.973276
v 7.447773 3.889111 1.973276
v 7.447773 3.889111 -2.003381
v 7.447773 3.653986 1.973275
v 7.447773 3.653986 -2.003381
v 7.243046 3.653986 1.973275
v 7.243046 3.653986 -2.003381
v 10.990868 3.889111 -2.003381
v 10.990866 3.889111 1.973276
v 11.195595 3.889111 1.973276
v 11.195595 3.889111 -2.003382
v 11.195595 3.653986 1.973275
v 11.195595 3.653986 -2.003384
v 10.990868 3.653986 1.973275
v 10.990868 3.653986 -2.003381
v 7.287531 3.889111 -1.933516
v 10.991114 3.889111 2.065373
v 11.135881 3.889111 1.920606
v 7.432295 3.889111 -2.078280
v 11.135881 3.653986 1.920605
v 7.432295 3.653986 -2.078282
v 10.991117 3.653986 2.065367
v 7.287531 3.653986 -1.933516
v 7.327805 3.889111 -2.091262
v 3.666921 3.889111 1.946754
v 3.823754 3.889111 2.078353
v 7.484634 3.889111 -1.959666
v 3.823755 3.653986 2.078351
v 7.484634 3.653986 -1.959666
v 3.666924 3.653986 1.946758
v 7.327805 3.653986 -2.091264
v -0.055110 3.889111 -1.933515
v 3.648474 3.889111 2.065374
v 3.793242 3.889111 1.920607
v 0.089654 3.889111 -2.078278
v 3.793242 3.653986 1.920606
v 0.089654 3.653986 -2.078279
v 3.648478 3.653986 2.065368
v -0.055110 3.653986 -1.933515
v -0.025949 3.889111 -2.091261
v -3.686831 3.889111 1.946756
v -3.529998 3.889111 2.078355
v 0.130881 3.889111 -1.959665
v -3.529998 3.653986 2.078353
v 0.130881 3.653986 -1.959665
v -3.686828 3.653986 1.946759
v -0.025949 3.653986 -2.091263
v -7.374957 3.889111 -1.933513
v -3.671373 3.889111 2.065375
v -3.526606 3.889111 1.920608
v -7.230193 3.889111 -2.078277
v -3.526606 3.653986 1.920608
v -7.230193 3.653986 -2.078279
v -3.671370 3.653986 2.065372
v -7.374957 3.653986 -1.933513
v -7.352096 3.889111 -2.091259
v -11.012979 3.889111 1.946757
v -10.856145 3.889111 2.078357
v -7.195266 3.889111 -1.959663
v -10.856145 3.653986 2.078357
v -7.195266 3.653986 -1.959663
v -11.012975 3.653986 1.946760
v -7.352096 3.653986 -2.091259
v -14.608736 -0.250927 2.157965
v -14.608736 -0.045690 2.157965
v -14.608737 -0.045690 -2.172909
v -14.608737 -0.250927 -2.172909
v -10.927829 -0.250927 2.157964
v -10.927829 -0.045690 2.157964
v -7.249528 -0.250927 2.157964
v -7.249528 -0.045690 2.157964
v -10.927830 -0.045690 -2.172910
v -10.927830 -0.250927 -2.172910
v -3.600448 -0.250927 2.157963
v -3.600448 -0.045690 2.157963
v -7.249529 -0.250927 -2.172910
v -7.249529 -0.045690 -2.172910
v -3.600449 -0.045690 -2.172911
v 0.042594 -0.045690 2.157962
v 0.042593 -0.045690 -2.172912
v -3.600449 -0.250927 -2.172911
v 0.042594 -0.250927 2.157962
v 0.042593 -0.250927 -2.172912
v 3.711574 -0.250927 -2.172913
v 3.711575 -0.250927 2.157961
v 3.711574 -0.045690 -2.172913
v 3.711575 -0.045690 2.157961
v 7.355543 -0.045690 2.157961
v 7.355542 -0.045690 -2.172913
v 7.355543 -0.250927 2.157961
v 7.355542 -0.250927 -2.172913
v 11.138655 -0.250927 -2.172914
v 11.138656 -0.250927 2.157960
v 11.138655 -0.045690 -2.172914
v 11.138656 -0.045690 2.157960
v 14.794154 -0.045690 2.157959
v 14.794153 -0.045690 -2.172915
v 14.794154 -0.250927 2.157959
v 14.794153 -0.250927 -2.172915
vn 1.0000 0.0000 0.0000
vn 0.0000 -0.0000 1.0000
vn -1.0000 -0.0000 0.0000
vn 0.0000 0.0000 -1.0000
vn 0.0000 1.0000 0.0000
vn 0.0000 -1.0000 0.0000
vn 0.7232 0.6907 -0.0000
vn -0.7232 -0.6907 -0.0000
vn -0.7333 0.6799 0.0000
vn 0.7333 -0.6799 -0.0000
vn -0.7001 0.7141 0.0000
vn 0.7001 -0.7141 -0.0000
vn 0.6973 -0.7167 0.0000
vn -0.6973 0.7167 -0.0000
vn 0.7432 0.6691 0.0000
vn -0.7352 -0.6778 -0.0000
vn -0.7467 0.6651 0.0000
vn 0.7447 -0.6674 0.0000
vn -0.7380 0.6748 0.0000
vn 0.7380 -0.6748 0.0000
vn -0.7073 0.7070 0.0000
vn 0.7073 -0.7069 -0.0000
vn 0.7024 -0.7117 0.0000
vn -0.7024 0.7117 -0.0000
vn 0.7337 0.0000 -0.6795
vn -0.7337 -0.0000 0.6795
vn 0.7409 -0.0000 0.6717
vn -0.7409 -0.0000 -0.6717
usemtl Base
s 1
f 1//1 2//1 3//1 4//1
f 4//2 3//2 5//2 6//2
f 6//3 5//3 7//3 8//3
f 8//4 7//4 2//4 1//4
f 9//5 7//5 5//5 10//5
f 10//2 5//2 11//2 12//2
f 12//6 11//6 13//6 14//6
f 14//4 13//4 7//4 9//4
f 15//7 16//7 17//7 18//7
f 18//2 17//2 19//2 20//2
f 20//8 19//8 21//8 22//8
f 22//4 21//4 16//4 15//4
f 23//1 24//1 25//1 26//1
f 26//2 25//2 27//2 28//2
f 28//3 27//3 29//3 30//3
f 30//4 29//4 24//4 23//4
f 31//5 29//5 27//5 32//5
f 32//2 27//2 33//2 34//2
f 34//6 33//6 35//6 36//6
f 36//4 35//4 29//4 31//4
f 37//9 38//9 39//9 40//9
f 40//2 39//2 41//2 42//2
f 42//10 41//10 43//10 44//10
f 44//4 43//4 38//4 37//4
f 45//1 46//1 47//1 48//1
f 48//2 47//2 49//2 50//2
f 50//3 49//3 51//3 52//3
f 52//4 51//4 46//4 45//4
f 53//5 51//5 49//5 54//5
f 54//2 49//2 55//2 56//2
f 56//6 55//6 57//6 58//6
f 58//4 57//4 51//4 53//4
f 59//7 60//7 61//7 62//7
f 62//2 61//2 63//2 64//2
f 64//8 63//8 65//8 66//8
f 66//4 65//4 60//4 59//4
f 67//1 68//1 69//1 70//1
f 70//2 69//2 71//2 72//2
f 72//3 71//3 73//3 74//3
f 74//4 73//4 68//4 67//4
f 75//5 73//5 71//5 76//5
f 76//2 71//2 77//2 78//2
f 78//6 77//6 79//6 80//6
f 80//4 79//4 73//4 75//4
f 81//11 82//11 83//11 84//11
f 84//2 83//2 85//2 86//2
f 86//12 85//12 87//12 88//12
f 88//4 87//4 82//4 81//4
f 89//1 90//1 91//1 92//1
f 92//2 91//2 93//2 94//2
f 94//3 93//3 95//3 96//3
f 96//4 95//4 90//4 89//4
f 97//5 95//5 93//5 98//5
f 98//2 93//2 99//2 100//2
f 100//6 99//6 101//6 102//6
f 102//4 101//4 95//4 97//4
f 103//7 104//7 105//7 106//7
f 106//2 105//2 107//2 108//2
f 108//8 107//8 109//8 110//8
f 110//4 109//4 104//4 103//4
f 111//1 112//1 113//1 114//1
f 114//2 113//2 115//2 116//2
f 116//3 115//3 117//3 118//3
f 118//4 117//4 112//4 111//4
f 119//5 117//5 115//5 120//5
f 120//2 115//2 121//2 122//2
f 122//6 121//6 123//6 124//6
f 124//4 123//4 117//4 119//4
f 125//13 126//13 127//13 128//13
f 128//2 127//2 129//2 130//2
f 130//14 129//14 131//14 132//14
f 132//4 131//4 126//4 125//4
f 133//1 119//1 120//1 134//1
f 134//2 120//2 135//2 136//2
f 136//3 135//3 137//3 138//3
f 138//4 137//4 119//4 133//4
f 139//15 119//15 120//15 140//15
f 140//2 120//2 141//2 142//2
f 142//16 141//16 143//16 144//16
f 144//4 143//4 119//4 139//4
f 145//17 5//17 7//17 146//17
f 146//4 7//4 147//4 148//4
f 148//18 147//18 149//18 150//18
f 150//2 149//2 5//2 145//2
f 151//1 152//1 153//1 154//1
f 154//2 153//2 155//2 156//2
f 156//3 155//3 157//3 158//3
f 158//4 157//4 152//4 151//4
f 159//5 157//5 155//5 160//5
f 160//2 155//2 161//2 162//2
f 162//6 161//6 163//6 164//6
f 164//4 163//4 157//4 159//4
f 165//7 166//7 167//7 168//7
f 168//2 167//2 169//2 170//2
f 170//8 169//8 171//8 172//8
f 172//4 171//4 166//4 165//4
f 173//1 174//1 175//1 176//1
f 176//2 175//2 177//2 178//2
f 178//3 177//3 179//3 180//3
f 180//4 179//4 174//4 173//4
f 181//5 179//5 177//5 182//5
f 182//2 177//2 183//2 184//2
f 184//6 183//6 185//6 186//6
f 186//4 185//4 179//4 181//4
f 187//19 188//19 189//19 190//19
f 190//2 189//2 191//2 192//2
f 192//20 191//20 193//20 194//20
f 194//4 193//4 188//4 187//4
f 195//1 196//1 197//1 198//1
f 198//2 197//2 199//2 200//2
f 200//3 199//3 201//3 202//3
f 202//4 201//4 196//4 195//4
f 203//5 201//5 199//5 204//5
f 204//2 199//2 205//2 206//2
f 206//6 205//6 207//6 208//6
f 208//4 207//4 201//4 203//4
f 209//7 210//7 211//7 212//7
f 212//2 211//2 213//2 214//2
f 214//8 213//8 215//8 216//8
f 216//4 215//4 210//4 209//4
f 217//1 218//1 219//1 220//1
f 220//2 219//2 221//2 222//2
f 222//3 221//3 223//3 224//3
f 224//4 223//4 218//4 217//4
f 225//5 223//5 221//5 226//5
f 226//2 221//2 227//2 228//2
f 228//6 227//6 229//6 230//6
f 230//4 229//4 223//4 225//4
f 231//21 232//21 233//21 234//21
f 234//2 233//2 235//2 236//2
f 236//22 235//22 237//22 238//22
f 238//4 237//4 232//4 231//4
f 239//1 240//1 241//1 242//1
f 242//2 241//2 243//2 244//2
f 244//3 243//3 245//3 246//3
f 246//4 245//4 240//4 239//4
f 247//5 245//5 243//5 248//5
f 248//2 243//2 249//2 250//2
f 250//6 249//6 251//6 252//6
f 252//4 251//4 245//4 247//4
f 253//7 254//7 255//7 256//7
f 256//2 255//2 257//2 258//2
f 258//8 257//8 259//8 260//8
f 260//4 259//4 254//4 253//4
f 261//1 262//1 263//1 264//1
f 264//2 263//2 265//2 266//2
f 266//3 265//3 267//3 268//3
f 268//4 267//4 262//4 261//4
f 269//5 267//5 265//5 270//5
f 270//2 265//2 271//2 272//2
f 272//6 271//6 273//6 274//6
f 274//4 273//4 267//4 269//4
f 275//23 276//23 277//23 278//23
f 278//2 277//2 279//2 280//2
f 280//24 279//24 281//24 282//24
f 282//4 281//4 276//4 275//4
f 283//1 269//1 270//1 284//1
f 284//2 270//2 285//2 286//2
f 286//3 285//3 287//3 288//3
f 288//4 287//4 269//4 283//4
f 289//15 269//15 270//15 290//15
f 290//2 270//2 291//2 292//2
f 292//16 291//16 293//16 294//16
f 294//4 293//4 269//4 289//4
f 295//17 155//17 157//17 296//17
f 296//4 157//4 297//4 298//4
f 298//18 297//18 299//18 300//18
f 300//2 299//2 155//2 295//2
f 301//5 302//5 303//5 304//5
f 304//1 303//1 305//1 306//1
f 306//6 305//6 307//6 308//6
f 308//3 307//3 302//3 301//3
f 309//5 310//5 311//5 312//5
f 312//1 311//1 313//1 314//1
f 314//6 313//6 315//6 316//6
f 316//3 315//3 310//3 309//3
f 317//5 318//5 319//5 320//5
f 320//1 319//1 321//1 322//1
f 322//6 321//6 323//6 324//6
f 324//3 323//3 318//3 317//3
f 325//5 326//5 327//5 328//5
f 328//1 327//1 329//1 330//1
f 330//6 329//6 331//6 332//6
f 332//3 331//3 326//3 325//3
f 333//5 334//5 335//5 336//5
f 336//1 335//1 337//1 338//1
f 338//6 337//6 339//6 340//6
f 340//3 339//3 334//3 333//3
f 341//5 342//5 343//5 344//5
f 344//1 343//1 345//1 346//1
f 346//6 345//6 347//6 348//6
f 348//3 347//3 342//3 341//3
f 349//5 350//5 351//5 352//5
f 352//1 351//1 353//1 354//1
f 354//6 353//6 355//6 356//6
f 356//3 355//3 350//3 349//3
f 357//5 358//5 359//5 360//5
f 360//25 359//25 361//25 362//25
f 362//6 361//6 363//6 364//6
f 364//26 363//26 358//26 357//26
f 365//5 366//5 367//5 368//5
f 368//27 367//27 369//27 370//27
f 370//6 369//6 371//6 372//6
f 372//28 371//28 366//28 365//28
f 373//5 374//5 375//5 376//5
f 376//25 375//25 377//25 378//25
f 378//6 377//6 379//6 380//6
f 380//26 379//26 374//26 373//26
f 381//5 382//5 383//5 384//5
f 384//27 383//27 385//27 386//27
f 386//6 385//6 387//6 388//6
f 388//28 387//28 382//28 381//28
f 389//5 390//5 391//5 392//5
f 392//25 391//25 393//25 394//25
f 394//6 393//6 395//6 396//6
f 396//26 395//26 390//26 389//26
f 397//5 398//5 399//5 400//5
f 400//27 399//27 401//27 402//27
f 402//6 401//6 403//6 404//6
f 404//28 403//28 398//28 397//28
f 405//3 406//3 407//3 408//3
f 405//2 409//2 410//2 406//2
f 410//2 409//2 411//2 412//2
f 407//4 413//4 414//4 408//4
f 406//5 410//5 413//5 407//5
f 408//6 414//6 409//6 405//6
f 412//2 411//2 415//2 416//2
f 409//6 414//6 417//6 411//6
f 413//5 410//5 412//5 418//5
f 414//4 413//4 418//4 417//4
f 419//5 416//5 420//5 421//5
f 411//6 417//6 422//6 415//6
f 417//4 418//4 419//4 422//4
f 418//5 412//5 416//5 419//5
f 423//6 424//6 425//6 426//6
f 415//6 422//6 424//6 423//6
f 416//2 415//2 423//2 420//2
f 422//4 419//4 421//4 424//4
f 427//5 428//5 429//5 430//5
f 421//5 420//5 428//5 427//5
f 420//2 423//2 426//2 428//2
f 424//4 421//4 427//4 425//4
f 431//6 432//6 433//6 434//6
f 426//6 425//6 432//6 431//6
f 428//2 426//2 431//2 429//2
f 425//4 427//4 430//4 432//4
f 435//5 436//5 437//5 438//5
f 432//4 430//4 435//4 433//4
f 430//5 429//5 436//5 435//5
f 429//2 431//2 434//2 436//2
f 439//1 440//1 438//1 437//1
f 433//4 435//4 438//4 440//4
f 436//2 434//2 439//2 437//2
f 434//6 433//6 440//6 439//6
