# Blender v2.79 (sub 0) OBJ File: ''
# www.blender.org
mtllib 40kmh.mtl
o Cylinder.006
v 0.143668 2.820463 0.060322
v 0.000000 2.849041 0.060322
v -0.143667 2.820463 0.060322
v -0.265463 2.739082 0.060322
v -0.346844 2.617287 0.060322
v -0.375421 2.473619 0.060322
v -0.346844 2.329952 0.060322
v -0.265463 2.208156 0.060322
v -0.143667 2.126775 0.060322
v 0.000000 2.098198 0.060322
v 0.143668 2.126775 0.060322
v 0.265463 2.208156 0.060322
v 0.346844 2.329952 0.060322
v 0.375421 2.473619 0.060322
v 0.346844 2.617286 0.060322
v 0.265463 2.739082 0.060322
v -0.169258 2.518784 0.061250
v -0.168651 2.518784 0.061250
v -0.168651 2.452585 0.061250
v -0.169258 2.452585 0.061250
v -0.075304 2.452585 0.061250
v -0.075304 2.518784 0.061250
v 0.018426 2.327740 0.061250
v 0.083068 2.327740 0.061250
v 0.083068 2.638995 0.061250
v 0.018426 2.638995 0.061250
v 0.177022 2.327740 0.061250
v 0.241664 2.327740 0.061250
v 0.241664 2.638995 0.061250
v 0.177022 2.638995 0.061250
v 0.241664 2.706127 0.061250
v 0.177022 2.706127 0.061250
v 0.083068 2.706127 0.061250
v 0.018426 2.706127 0.061250
v 0.177022 2.261541 0.061250
v 0.241664 2.261541 0.061250
v 0.018426 2.261541 0.061250
v 0.083068 2.261541 0.061250
v -0.227350 2.518784 0.061250
v -0.168651 2.707876 0.061250
v -0.227350 2.707876 0.061250
v -0.010662 2.518784 0.061250
v -0.010662 2.452585 0.061250
v -0.075644 2.323812 0.061250
v -0.075644 2.262629 0.061250
v -0.009691 2.262629 0.061250
v -0.009691 2.323812 0.061250
v -0.227350 2.452585 0.061250
v -0.010662 2.638995 0.061250
v -0.010662 2.706127 0.061250
v -0.075304 2.706127 0.061250
v -0.075304 2.638995 0.061250
v -0.059469 -0.028959 0.000853
v -0.059469 2.495479 0.000853
v 0.000000 2.495479 -0.058616
v 0.000000 -0.028959 -0.058616
v 0.059469 2.495479 0.000853
v 0.059469 -0.028959 0.000853
v 0.000000 2.495480 0.060322
v 0.000000 -0.028959 0.060322
v 0.171387 2.887384 0.060322
v 0.316682 2.790301 0.060322
v 0.413765 2.645006 0.060322
v 0.447856 2.473619 0.060322
v 0.413765 2.302232 0.060322
v 0.316682 2.156937 0.060322
v 0.171387 2.059854 0.060322
v 0.000000 2.025763 0.060322
v -0.171387 2.059854 0.060322
v -0.316682 2.156937 0.060322
v -0.413765 2.302232 0.060322
v -0.447856 2.473619 0.060322
v -0.413765 2.645006 0.060322
v -0.316682 2.790301 0.060322
v -0.171387 2.887384 0.060322
v 0.000000 2.921475 0.060322
vn 0.0000 -0.0000 1.0000
vn -0.7071 0.0000 -0.7071
vn 0.7071 0.0000 -0.7071
vn 0.7071 -0.0000 0.7071
vn -0.7071 -0.0000 0.7071
vn 0.0000 1.0000 -0.0000
vn -0.0000 0.0000 -1.0000
usemtl Yellow
s off
f 1//1 2//1 3//1 4//1 5//1 6//1 7//1 8//1 9//1 10//1 11//1 12//1 13//1 14//1 15//1 16//1
usemtl Black
f 17//1 18//1 19//1 20//1 21//1 22//1
f 23//1 24//1 25//1 26//1
f 27//1 28//1 29//1 30//1
f 30//1 29//1 31//1 32//1
f 26//1 25//1 33//1 34//1
f 32//1 33//1 25//1 30//1
f 28//1 27//1 35//1 36//1
f 24//1 23//1 37//1 38//1
f 27//1 24//1 38//1 35//1
f 39//1 18//1 40//1 41//1
f 42//1 22//1 21//1 43//1
f 44//1 45//1 46//1 47//1 43//1 21//1
f 19//1 18//1 39//1 48//1
f 22//1 42//1 49//1 50//1 51//1 52//1
usemtl Metal
f 53//2 54//2 55//2 56//2
f 56//3 55//3 57//3 58//3
f 58//4 57//4 59//4 60//4
f 60//5 59//5 54//5 53//5
f 59//6 57//6 55//6 54//6
f 61//7 62//7 63//7 64//7 65//7 66//7 67//7 68//7 69//7 70//7 71//7 72//7 73//7 74//7 75//7 76//7
usemtl Red
f 2//1 1//1 61//1 76//1
f 1//1 16//1 62//1 61//1
f 16//1 15//1 63//1 62//1
f 15//1 14//1 64//1 63//1
f 14//1 13//1 65//1 64//1
f 13//1 12//1 66//1 65//1
f 12//1 11//1 67//1 66//1
f 11//1 10//1 68//1 67//1
f 10//1 9//1 69//1 68//1
f 9//1 8//1 70//1 69//1
f 8//1 7//1 71//1 70//1
f 7//1 6//1 72//1 71//1
f 6//1 5//1 73//1 72//1
f 5//1 4//1 74//1 73//1
f 3//1 2//1 76//1 75//1
f 4//1 3//1 75//1 74//1
