# Blender v2.79 (sub 0) OBJ File: ''
# www.blender.org
mtllib highwayexit.mtl
o Cylinder.003
v -0.059469 -0.028959 0.000853
v -0.059469 2.495479 0.000853
v 0.000000 2.495479 -0.058616
v 0.000000 -0.028959 -0.058616
v 0.059469 2.495479 0.000853
v 0.059469 -0.028959 0.000853
v 0.000000 2.495480 0.060322
v 0.000000 -0.028959 0.060322
v -0.472167 1.857067 0.066050
v 0.466958 1.857067 0.066050
v -0.472167 3.288775 0.066050
v 0.466958 3.288775 0.066050
v -0.472167 2.822578 0.066050
v -0.472167 2.500741 0.066050
v -0.472167 2.178905 0.066050
v 0.466958 2.178904 0.066050
v 0.466958 2.500741 0.066050
v 0.466958 2.822578 0.066050
v 0.002132 3.283453 0.066050
v 0.002132 2.997519 0.066050
v 0.002132 2.622070 0.066050
v 0.002132 2.297878 0.066050
vn -0.7071 0.0000 -0.7071
vn 0.7071 0.0000 -0.7071
vn 0.7071 -0.0000 0.7071
vn -0.7071 -0.0000 0.7071
vn 0.0000 1.0000 -0.0000
vn -0.0000 -0.0000 -1.0000
vn 0.0000 0.0000 1.0000
usemtl Metal
s off
f 1//1 2//1 3//1 4//1
f 4//2 3//2 5//2 6//2
f 6//3 5//3 7//3 8//3
f 8//4 7//4 2//4 1//4
f 7//5 5//5 3//5 2//5
f 9//6 11//6 12//6 10//6
usemtl White
f 20//7 19//7 13//7 14//7
f 18//7 19//7 20//7 17//7
f 22//7 21//7 15//7 9//7
f 16//7 21//7 22//7 10//7
usemtl Blue
f 18//7 12//7 19//7
f 19//7 11//7 13//7
f 20//7 21//7 16//7 17//7
f 14//7 15//7 21//7 20//7
f 10//7 22//7 9//7
