# Blender v2.79 (sub 0) OBJ File: ''
# www.blender.org
mtllib leftforwardarrow.mtl
o Plane_Plane.003
v -0.112037 0.037898 0.508209
v 0.112037 0.037898 0.508209
v -0.112037 0.037898 -1.000000
v 0.112037 0.037898 -1.000000
v 0.005566 0.037898 0.889849
v -0.433120 0.037898 0.468161
v 0.436201 0.037898 0.468161
v 0.520682 0.037898 0.058740
v 0.520682 0.037898 -0.165334
v -0.117678 0.037898 0.058740
v -0.117678 0.037898 -0.165334
v 0.902323 0.037898 -0.058863
v 0.480634 0.037898 0.379823
v 0.480634 0.037898 -0.489498
vn 0.0000 1.0000 0.0000
usemtl White
s off
f 1//1 2//1 4//1 3//1
f 5//1 7//1 6//1
f 8//1 9//1 11//1 10//1
f 12//1 14//1 13//1
