# Blender v2.79 (sub 0) OBJ File: ''
# www.blender.org
mtllib archbridgepillar.mtl
o Cube_Cube.000
v -0.176010 1.336002 0.776195
v -0.176011 1.336002 -0.776195
v 0.170377 1.336002 -0.776195
v 0.170377 1.336002 0.776195
v -0.176011 -1.338053 -0.776196
v 0.170377 -1.338053 -0.776196
v -0.176010 -1.338054 0.776194
v 0.170377 -1.338054 0.776194
vn 0.0000 -0.0000 1.0000
vn 0.0000 0.0000 -1.0000
vn -1.0000 0.0000 0.0000
vn 1.0000 0.0000 0.0000
vn 0.0000 1.0000 0.0000
usemtl Concrete.001
s off
f 4//1 1//1 7//1 8//1
f 2//2 3//2 6//2 5//2
f 1//3 2//3 5//3 7//3
f 3//4 4//4 8//4 6//4
f 3//5 2//5 1//5 4//5
