# Blender v2.79 (sub 0) OBJ File: ''
# www.blender.org
mtllib 100kmh.mtl
o Cylinder.009
v -0.059469 -0.028959 0.000853
v -0.059469 2.495479 0.000853
v 0.000000 2.495479 -0.058616
v 0.000000 -0.028959 -0.058616
v 0.059469 2.495479 0.000853
v 0.059469 -0.028959 0.000853
v 0.000000 2.495480 0.060322
v 0.000000 -0.028959 0.060322
v 0.171387 2.887384 0.060322
v 0.316682 2.790301 0.060322
v 0.413765 2.645006 0.060322
v 0.447856 2.473619 0.060322
v 0.413765 2.302232 0.060322
v 0.316682 2.156937 0.060322
v 0.171387 2.059854 0.060322
v 0.000000 2.025763 0.060322
v -0.171387 2.059854 0.060322
v -0.316682 2.156937 0.060322
v -0.413765 2.302232 0.060322
v -0.447856 2.473619 0.060322
v -0.413765 2.645006 0.060322
v -0.316682 2.790301 0.060322
v -0.171387 2.887384 0.060322
v 0.000000 2.921475 0.060322
v 0.143668 2.820463 0.060322
v 0.000000 2.849041 0.060322
v -0.143667 2.820463 0.060322
v -0.265463 2.739082 0.060322
v -0.346844 2.617287 0.060322
v -0.375421 2.473619 0.060322
v -0.346844 2.329952 0.060322
v -0.265463 2.208156 0.060322
v -0.143667 2.126775 0.060322
v 0.000000 2.098198 0.060322
v 0.143668 2.126775 0.060322
v 0.265463 2.208156 0.060322
v 0.346844 2.329952 0.060322
v 0.375421 2.473619 0.060322
v 0.346844 2.617286 0.060322
v 0.265463 2.739082 0.060322
v 0.054623 2.327740 0.061250
v 0.119265 2.327740 0.061250
v 0.119265 2.638995 0.061250
v 0.054623 2.638995 0.061250
v 0.213219 2.327740 0.061250
v 0.277861 2.327740 0.061250
v 0.277861 2.638995 0.061250
v 0.213219 2.638995 0.061250
v 0.277861 2.706127 0.061250
v 0.213219 2.706127 0.061250
v 0.119265 2.706127 0.061250
v 0.054623 2.706127 0.061250
v 0.213219 2.261541 0.061250
v 0.277861 2.261541 0.061250
v 0.054623 2.261541 0.061250
v 0.119265 2.261541 0.061250
v -0.270358 2.259747 0.061250
v -0.205716 2.259747 0.061250
v -0.205716 2.706990 0.061250
v -0.270358 2.706990 0.061250
v -0.028820 2.327740 0.061250
v -0.122774 2.327740 0.061250
v -0.122774 2.261541 0.061250
v -0.028820 2.261541 0.061250
v -0.187416 2.327740 0.061250
v -0.187416 2.261541 0.061250
v 0.035822 2.327740 0.061250
v 0.035822 2.261541 0.061250
v -0.028820 2.706127 0.061250
v -0.122774 2.706127 0.061250
v -0.122774 2.638995 0.061250
v -0.028820 2.638995 0.061250
v -0.187416 2.638995 0.061250
v -0.187416 2.706127 0.061250
v 0.035822 2.638995 0.061250
v 0.035822 2.706127 0.061250
vn 0.0000 -0.0000 1.0000
vn -0.7071 0.0000 -0.7071
vn 0.7071 0.0000 -0.7071
vn 0.7071 -0.0000 0.7071
vn -0.7071 -0.0000 0.7071
vn 0.0000 1.0000 -0.0000
vn -0.0000 0.0000 -1.0000
usemtl Yellow
s off
f 25//1 26//1 27//1 28//1 29//1 30//1 31//1 32//1 33//1 34//1 35//1 36//1 37//1 38//1 39//1 40//1
usemtl Black
f 41//1 42//1 43//1 44//1
f 45//1 46//1 47//1 48//1
f 48//1 47//1 49//1 50//1
f 44//1 43//1 51//1 52//1
f 50//1 51//1 43//1 48//1
f 46//1 45//1 53//1 54//1
f 42//1 41//1 55//1 56//1
f 45//1 42//1 56//1 53//1
f 57//1 58//1 59//1 60//1
f 61//1 62//1 63//1 64//1
f 62//1 65//1 66//1 63//1
f 67//1 61//1 64//1 68//1
f 69//1 70//1 71//1 72//1
f 73//1 71//1 70//1 74//1
f 72//1 75//1 76//1 69//1
f 61//1 67//1 75//1 72//1
f 65//1 62//1 71//1 73//1
usemtl Metal
f 1//2 2//2 3//2 4//2
f 4//3 3//3 5//3 6//3
f 6//4 5//4 7//4 8//4
f 8//5 7//5 2//5 1//5
f 7//6 5//6 3//6 2//6
f 9//7 10//7 11//7 12//7 13//7 14//7 15//7 16//7 17//7 18//7 19//7 20//7 21//7 22//7 23//7 24//7
usemtl Red
f 26//1 25//1 9//1 24//1
f 25//1 40//1 10//1 9//1
f 40//1 39//1 11//1 10//1
f 39//1 38//1 12//1 11//1
f 38//1 37//1 13//1 12//1
f 37//1 36//1 14//1 13//1
f 36//1 35//1 15//1 14//1
f 35//1 34//1 16//1 15//1
f 34//1 33//1 17//1 16//1
f 33//1 32//1 18//1 17//1
f 32//1 31//1 19//1 18//1
f 31//1 30//1 20//1 19//1
f 30//1 29//1 21//1 20//1
f 29//1 28//1 22//1 21//1
f 27//1 26//1 24//1 23//1
f 28//1 27//1 23//1 22//1
