# Blender v2.79 (sub 0) OBJ File: ''
# www.blender.org
mtllib 50kmh.mtl
o Cylinder.003
v -0.169258 2.518784 0.061250
v -0.168651 2.518784 0.061250
v -0.168651 2.452585 0.061250
v -0.169258 2.452585 0.061250
v -0.075304 2.452585 0.061250
v -0.075304 2.518784 0.061250
v 0.018426 2.327740 0.061250
v 0.083068 2.327740 0.061250
v 0.083068 2.638995 0.061250
v 0.018426 2.638995 0.061250
v 0.177022 2.327740 0.061250
v 0.241664 2.327740 0.061250
v 0.241664 2.638995 0.061250
v 0.177022 2.638995 0.061250
v 0.241664 2.706127 0.061250
v 0.177022 2.706127 0.061250
v 0.083068 2.706127 0.061250
v 0.018426 2.706127 0.061250
v 0.177022 2.261541 0.061250
v 0.241664 2.261541 0.061250
v 0.018426 2.261541 0.061250
v 0.083068 2.261541 0.061250
v -0.227350 2.518784 0.061250
v -0.168651 2.639570 0.061250
v -0.227350 2.639570 0.061250
v -0.010662 2.518784 0.061250
v -0.010662 2.452585 0.061250
v -0.075644 2.328485 0.061250
v -0.009691 2.328485 0.061250
v -0.227350 2.452585 0.061250
v -0.010662 2.639408 0.061250
v -0.010662 2.707247 0.061250
v -0.168651 2.707409 0.061250
v -0.227350 2.707409 0.061250
v -0.075644 2.261829 0.061250
v -0.009691 2.261829 0.061250
v -0.224194 2.328485 0.061250
v -0.224194 2.261829 0.061250
v 0.143668 2.820463 0.060322
v 0.000000 2.849041 0.060322
v -0.143667 2.820463 0.060322
v -0.265463 2.739082 0.060322
v -0.346844 2.617287 0.060322
v -0.375421 2.473619 0.060322
v -0.346844 2.329952 0.060322
v -0.265463 2.208156 0.060322
v -0.143667 2.126775 0.060322
v 0.000000 2.098198 0.060322
v 0.143668 2.126775 0.060322
v 0.265463 2.208156 0.060322
v 0.346844 2.329952 0.060322
v 0.375421 2.473619 0.060322
v 0.346844 2.617286 0.060322
v 0.265463 2.739082 0.060322
v 0.171387 2.887384 0.060322
v 0.000000 2.921475 0.060322
v 0.316682 2.790301 0.060322
v 0.413765 2.645006 0.060322
v 0.447856 2.473619 0.060322
v 0.413765 2.302232 0.060322
v 0.316682 2.156937 0.060322
v 0.171387 2.059854 0.060322
v 0.000000 2.025763 0.060322
v -0.171387 2.059854 0.060322
v -0.316682 2.156937 0.060322
v -0.413765 2.302232 0.060322
v -0.447856 2.473619 0.060322
v -0.413765 2.645006 0.060322
v -0.316682 2.790301 0.060322
v -0.171387 2.887384 0.060322
v -0.059469 -0.028959 0.000853
v -0.059469 2.495479 0.000853
v 0.000000 2.495479 -0.058616
v 0.000000 -0.028959 -0.058616
v 0.059469 2.495479 0.000853
v 0.059469 -0.028959 0.000853
v 0.000000 2.495480 0.060322
v 0.000000 -0.028959 0.060322
vn 0.0000 -0.0000 1.0000
vn -0.7071 0.0000 -0.7071
vn 0.7071 0.0000 -0.7071
vn 0.7071 -0.0000 0.7071
vn -0.7071 -0.0000 0.7071
vn 0.0000 1.0000 -0.0000
vn -0.0000 0.0000 -1.0000
usemtl Yellow
s off
f 39//1 40//1 41//1 42//1 43//1 44//1 45//1 46//1 47//1 48//1 49//1 50//1 51//1 52//1 53//1 54//1
usemtl Black
f 1//1 2//1 3//1 4//1 5//1 6//1
f 7//1 8//1 9//1 10//1
f 11//1 12//1 13//1 14//1
f 14//1 13//1 15//1 16//1
f 10//1 9//1 17//1 18//1
f 16//1 17//1 9//1 14//1
f 12//1 11//1 19//1 20//1
f 8//1 7//1 21//1 22//1
f 11//1 8//1 22//1 19//1
f 23//1 2//1 24//1 25//1
f 26//1 6//1 5//1 27//1
f 27//1 5//1 28//1 29//1
f 3//1 2//1 23//1 30//1
f 31//1 32//1 33//1 24//1
f 25//1 24//1 33//1 34//1
f 29//1 28//1 35//1 36//1
f 35//1 28//1 37//1 38//1
usemtl Metal
f 71//2 72//2 73//2 74//2
f 74//3 73//3 75//3 76//3
f 76//4 75//4 77//4 78//4
f 78//5 77//5 72//5 71//5
f 77//6 75//6 73//6 72//6
f 55//7 57//7 58//7 59//7 60//7 61//7 62//7 63//7 64//7 65//7 66//7 67//7 68//7 69//7 70//7 56//7
usemtl Red
f 40//1 39//1 55//1 56//1
f 39//1 54//1 57//1 55//1
f 54//1 53//1 58//1 57//1
f 53//1 52//1 59//1 58//1
f 52//1 51//1 60//1 59//1
f 51//1 50//1 61//1 60//1
f 50//1 49//1 62//1 61//1
f 49//1 48//1 63//1 62//1
f 48//1 47//1 64//1 63//1
f 47//1 46//1 65//1 64//1
f 46//1 45//1 66//1 65//1
f 45//1 44//1 67//1 66//1
f 44//1 43//1 68//1 67//1
f 43//1 42//1 69//1 68//1
f 41//1 40//1 56//1 70//1
f 42//1 41//1 70//1 69//1
