# Blender v2.79 (sub 0) OBJ File: ''
# www.blender.org
mtllib 90kmh.mtl
o Cylinder.008
v -0.059469 -0.028959 0.000853
v -0.059469 2.495479 0.000853
v 0.000000 2.495479 -0.058616
v 0.000000 -0.028959 -0.058616
v 0.059469 2.495479 0.000853
v 0.059469 -0.028959 0.000853
v 0.000000 2.495480 0.060322
v 0.000000 -0.028959 0.060322
v 0.171387 2.887384 0.060322
v 0.316682 2.790301 0.060322
v 0.413765 2.645006 0.060322
v 0.447856 2.473619 0.060322
v 0.413765 2.302232 0.060322
v 0.316682 2.156937 0.060322
v 0.171387 2.059854 0.060322
v 0.000000 2.025763 0.060322
v -0.171387 2.059854 0.060322
v -0.316682 2.156937 0.060322
v -0.413765 2.302232 0.060322
v -0.447856 2.473619 0.060322
v -0.413765 2.645006 0.060322
v -0.316682 2.790301 0.060322
v -0.171387 2.887384 0.060322
v 0.000000 2.921475 0.060322
v 0.143668 2.820463 0.060322
v 0.000000 2.849041 0.060322
v -0.143667 2.820463 0.060322
v -0.265463 2.739082 0.060322
v -0.346844 2.617287 0.060322
v -0.375421 2.473619 0.060322
v -0.346844 2.329952 0.060322
v -0.265463 2.208156 0.060322
v -0.143667 2.126775 0.060322
v 0.000000 2.098198 0.060322
v 0.143668 2.126775 0.060322
v 0.265463 2.208156 0.060322
v 0.346844 2.329952 0.060322
v 0.375421 2.473619 0.060322
v 0.346844 2.617286 0.060322
v 0.265463 2.739082 0.060322
v -0.169258 2.518784 0.061250
v -0.168651 2.518784 0.061250
v -0.168651 2.452585 0.061250
v -0.169258 2.452585 0.061250
v -0.075304 2.452585 0.062110
v -0.075304 2.518784 0.061250
v 0.018426 2.327740 0.061250
v 0.083068 2.327740 0.061250
v 0.083068 2.638995 0.061250
v 0.018426 2.638995 0.061250
v 0.177022 2.327740 0.061250
v 0.241664 2.327740 0.061250
v 0.241664 2.638995 0.061250
v 0.177022 2.638995 0.061250
v 0.241664 2.706127 0.061250
v 0.177022 2.706127 0.061250
v 0.083068 2.706127 0.061250
v 0.018426 2.706127 0.061250
v 0.177022 2.261541 0.061250
v 0.241664 2.261541 0.061250
v 0.018426 2.261541 0.061250
v 0.083068 2.261541 0.061250
v -0.227350 2.518784 0.061250
v -0.168651 2.639570 0.061250
v -0.227350 2.639570 0.061250
v -0.010662 2.518784 0.061250
v -0.010662 2.452585 0.062110
v -0.075644 2.328485 0.062110
v -0.009691 2.328485 0.062110
v -0.227350 2.452585 0.061250
v -0.073439 2.639408 0.061250
v -0.073439 2.707247 0.061250
v -0.168651 2.707409 0.061250
v -0.227350 2.707409 0.061250
v -0.075644 2.261829 0.061250
v -0.009691 2.261829 0.061250
v -0.170749 2.328485 0.061250
v -0.227569 2.328485 0.061250
v -0.227569 2.261829 0.061250
v -0.170749 2.261829 0.061250
v -0.009117 2.639408 0.061250
v -0.009117 2.707247 0.061250
vn 0.0000 -0.0000 1.0000
vn -0.0046 0.0065 1.0000
vn 0.0000 0.0130 0.9999
vn 0.0000 -0.0129 0.9999
vn -0.0028 -0.0040 1.0000
vn -0.7071 0.0000 -0.7071
vn 0.7071 0.0000 -0.7071
vn 0.7071 -0.0000 0.7071
vn -0.7071 -0.0000 0.7071
vn 0.0000 1.0000 -0.0000
vn -0.0000 0.0000 -1.0000
usemtl Yellow
s off
f 25//1 26//1 27//1 28//1 29//1 30//1 31//1 32//1 33//1 34//1 35//1 36//1 37//1 38//1 39//1 40//1
usemtl Black
f 41//2 42//2 43//2 44//2 45//2 46//2
f 47//1 48//1 49//1 50//1
f 51//1 52//1 53//1 54//1
f 54//1 53//1 55//1 56//1
f 50//1 49//1 57//1 58//1
f 56//1 57//1 49//1 54//1
f 52//1 51//1 59//1 60//1
f 48//1 47//1 61//1 62//1
f 51//1 48//1 62//1 59//1
f 63//1 42//1 64//1 65//1
f 66//3 46//3 45//3 67//3
f 67//1 45//1 68//1 69//1
f 43//1 42//1 63//1 70//1
f 71//1 72//1 73//1 64//1
f 65//1 64//1 73//1 74//1
f 69//4 68//4 75//4 76//4
f 75//5 68//5 77//5 78//5 79//5 80//5
f 72//1 71//1 81//1 82//1
f 66//1 81//1 71//1 46//1
usemtl Metal
f 1//6 2//6 3//6 4//6
f 4//7 3//7 5//7 6//7
f 6//8 5//8 7//8 8//8
f 8//9 7//9 2//9 1//9
f 7//10 5//10 3//10 2//10
f 9//11 10//11 11//11 12//11 13//11 14//11 15//11 16//11 17//11 18//11 19//11 20//11 21//11 22//11 23//11 24//11
usemtl Red
f 26//1 25//1 9//1 24//1
f 25//1 40//1 10//1 9//1
f 40//1 39//1 11//1 10//1
f 39//1 38//1 12//1 11//1
f 38//1 37//1 13//1 12//1
f 37//1 36//1 14//1 13//1
f 36//1 35//1 15//1 14//1
f 35//1 34//1 16//1 15//1
f 34//1 33//1 17//1 16//1
f 33//1 32//1 18//1 17//1
f 32//1 31//1 19//1 18//1
f 31//1 30//1 20//1 19//1
f 30//1 29//1 21//1 20//1
f 29//1 28//1 22//1 21//1
f 27//1 26//1 24//1 23//1
f 28//1 27//1 23//1 22//1
