# Blender v2.79 (sub 0) OBJ File: 'temp.blend'
# www.blender.org
mtllib 90kmh.mtl
o Cylinder.001
v 0.316682 2.790301 0.060322
v 0.413765 2.645006 0.060322
v 0.413765 2.302232 0.060322
v 0.316682 2.156937 0.060322
v -0.171387 2.059854 0.060322
v -0.316682 2.156937 0.060322
v -0.413765 2.302232 0.060322
v -0.413765 2.645006 0.060322
v -0.059469 -0.028959 0.000853
v -0.059469 2.495479 0.000853
v -0.000000 2.495479 -0.058616
v -0.000000 -0.028959 -0.058616
v 0.059469 2.495479 0.000853
v 0.059469 -0.028959 0.000853
v -0.000000 2.495480 0.060322
v -0.000000 -0.028959 0.060322
v -0.000000 2.849041 0.060322
v 0.375421 2.473619 0.060322
v 0.346844 2.329952 0.060322
v 0.265463 2.208156 0.060322
v 0.143668 2.126775 0.060322
v 0.000000 2.098198 0.060322
v -0.143667 2.126775 0.060322
v -0.265463 2.208156 0.060322
v -0.346844 2.329952 0.060322
v -0.375421 2.473619 0.060322
v 0.000000 2.921475 0.060322
v 0.171387 2.887384 0.060322
v 0.447856 2.473619 0.060322
v 0.171387 2.059854 0.060322
v 0.000000 2.025763 0.060322
v -0.447856 2.473619 0.060322
v -0.316682 2.790301 0.060322
v -0.171387 2.887384 0.060322
v 0.143668 2.820463 0.060322
v 0.265463 2.739082 0.060322
v 0.346844 2.617286 0.060322
v -0.346844 2.617287 0.060322
v -0.265463 2.739082 0.060322
v -0.143667 2.820463 0.060322
v -0.227350 2.639570 0.061250
v -0.168651 2.639570 0.061250
v -0.169258 2.518784 0.061250
v -0.168651 2.518784 0.061250
v 0.018426 2.327740 0.061250
v 0.083068 2.327740 0.061250
v 0.018426 2.638995 0.061250
v 0.083068 2.638995 0.061250
v 0.177022 2.327740 0.061250
v 0.241664 2.327740 0.061250
v 0.177022 2.638995 0.061250
v 0.241664 2.638995 0.061250
v 0.018426 2.706127 0.061250
v 0.083068 2.706127 0.061250
v 0.177022 2.706127 0.061250
v 0.241664 2.706127 0.061250
v 0.018426 2.261541 0.061250
v 0.083068 2.261541 0.061250
v 0.177022 2.261541 0.061250
v 0.241664 2.261541 0.061250
v -0.075304 2.518784 0.061250
v -0.010662 2.518784 0.061250
v -0.227350 2.452585 0.061250
v -0.227350 2.518784 0.061250
v -0.073439 2.639408 0.061250
v -0.168651 2.452585 0.061250
v -0.169258 2.452585 0.061250
v -0.075304 2.452585 0.062110
v -0.010662 2.452585 0.062110
v -0.075644 2.328485 0.062110
v -0.009691 2.328485 0.062110
v -0.227350 2.707409 0.061250
v -0.168651 2.707409 0.061250
v -0.073439 2.707247 0.061250
v -0.075644 2.261829 0.061250
v -0.009691 2.261829 0.061250
v -0.170749 2.328485 0.061250
v -0.170749 2.261829 0.061250
v -0.227569 2.328485 0.061250
v -0.227569 2.261829 0.061250
v -0.009117 2.639408 0.061250
v -0.009117 2.707247 0.061250
vn -0.7071 0.0000 -0.7071
vn 0.7071 0.0000 -0.7071
vn 0.7071 -0.0000 0.7071
vn -0.7071 -0.0000 0.7071
vn 0.0000 -1.0000 0.0000
vn -0.0000 -0.0000 -1.0000
vn 0.0000 0.0000 1.0000
vn -0.0046 0.0065 1.0000
vn 0.0000 0.0130 0.9999
vn 0.0000 -0.0129 0.9999
vn -0.0028 -0.0040 1.0000
usemtl Metal
s off
f 9//1 10//1 11//1 12//1
f 12//2 11//2 13//2 14//2
f 14//3 13//3 15//3 16//3
f 16//4 15//4 10//4 9//4
f 15//5 10//5 11//5 13//5
f 28//6 1//6 2//6 29//6 3//6 4//6 30//6 31//6 5//6 6//6 7//6 32//6 8//6 33//6 34//6 27//6
usemtl Yellow
f 35//7 17//7 40//7 39//7 38//7 26//7 25//7 24//7 23//7 22//7 21//7 20//7 19//7 18//7 37//7 36//7
usemtl Red
f 17//7 35//7 28//7 27//7
f 35//7 36//7 1//7 28//7
f 36//7 37//7 2//7 1//7
f 37//7 18//7 29//7 2//7
f 18//7 19//7 3//7 29//7
f 19//7 20//7 4//7 3//7
f 20//7 21//7 30//7 4//7
f 21//7 22//7 31//7 30//7
f 22//7 23//7 5//7 31//7
f 23//7 24//7 6//7 5//7
f 24//7 25//7 7//7 6//7
f 25//7 26//7 32//7 7//7
f 26//7 38//7 8//7 32//7
f 38//7 39//7 33//7 8//7
f 40//7 17//7 27//7 34//7
f 39//7 40//7 34//7 33//7
usemtl Black
f 43//8 44//8 66//8 67//8 68//8 61//8
f 45//7 46//7 48//7 47//7
f 49//7 50//7 52//7 51//7
f 51//7 52//7 56//7 55//7
f 47//7 48//7 54//7 53//7
f 55//7 54//7 48//7 51//7
f 50//7 49//7 59//7 60//7
f 46//7 45//7 57//7 58//7
f 49//7 46//7 58//7 59//7
f 64//7 44//7 42//7 41//7
f 62//9 61//9 68//9 69//9
f 69//7 68//7 70//7 71//7
f 66//7 44//7 64//7 63//7
f 65//7 74//7 73//7 42//7
f 41//7 42//7 73//7 72//7
f 71//10 70//10 75//10 76//10
f 75//11 70//11 77//11 79//11 80//11 78//11
f 74//7 65//7 81//7 82//7
f 62//7 81//7 65//7 61//7
