# Blender v2.79 (sub 0) OBJ File: ''
# www.blender.org
mtllib roundabout.mtl
o Cylinder.003
v -0.171387 2.887384 0.060322
v -0.316682 2.790301 0.060322
v -0.413765 2.645006 0.060322
v -0.447856 2.473619 0.060322
v -0.413765 2.302232 0.060322
v -0.316682 2.156937 0.060322
v -0.171387 2.059854 0.060322
v 0.000000 2.025763 0.060322
v 0.171387 2.059854 0.060322
v 0.316682 2.156937 0.060322
v 0.413765 2.302232 0.060322
v 0.447856 2.473619 0.060322
v 0.413765 2.645006 0.060322
v 0.316682 2.790301 0.060322
v 0.171387 2.887384 0.060322
v 0.000000 2.921475 0.060322
v -0.096531 2.768920 0.064741
v -0.034471 2.712604 0.064741
v -0.179953 2.567298 0.064741
v -0.242012 2.623614 0.064741
v -0.059469 -0.028959 0.000853
v -0.059469 2.495479 0.000853
v 0.000000 2.495479 -0.058616
v 0.000000 -0.028959 -0.058616
v 0.059469 2.495479 0.000853
v 0.059469 -0.028959 0.000853
v 0.000000 2.495480 0.060322
v 0.000000 -0.028959 0.060322
v 0.171387 2.887384 0.060322
v 0.316682 2.790301 0.060322
v 0.413765 2.645006 0.060322
v 0.447856 2.473619 0.060322
v 0.413765 2.302232 0.060322
v 0.316682 2.156937 0.060322
v 0.171387 2.059854 0.060322
v 0.000000 2.025763 0.060322
v -0.171387 2.059854 0.060322
v -0.316682 2.156937 0.060322
v -0.413765 2.302232 0.060322
v -0.447856 2.473619 0.060322
v -0.413765 2.645006 0.060322
v -0.316682 2.790301 0.060322
v -0.171387 2.887384 0.060322
v 0.000000 2.921475 0.060322
v -0.122626 2.515277 0.064741
v -0.299339 2.675635 0.064741
v -0.335846 2.468149 0.064741
v -0.223619 2.253160 0.064741
v -0.224742 2.336956 0.064741
v -0.019255 2.329619 0.064741
v -0.018132 2.245824 0.064741
v -0.020293 2.407023 0.064741
v -0.017094 2.168420 0.064741
v 0.159569 2.283194 0.064741
v 0.310238 2.480034 0.064741
v 0.251035 2.420722 0.064741
v 0.112811 2.572948 0.064741
v 0.172014 2.632260 0.064741
v 0.058124 2.518160 0.064741
v 0.226702 2.687048 0.064741
v 0.021187 2.733380 0.064741
vn -0.0000 -0.0000 1.0000
vn -0.7071 0.0000 -0.7071
vn 0.7071 0.0000 -0.7071
vn 0.7071 -0.0000 0.7071
vn -0.7071 -0.0000 0.7071
vn 0.0000 1.0000 -0.0000
vn -0.0000 0.0000 -1.0000
vn -0.4638 0.8859 0.0000
vn 0.3714 0.0000 -0.9285
vn 0.0156 0.0000 -0.9999
usemtl Blue
s off
f 1//1 2//1 3//1 4//1 5//1 6//1 7//1 8//1 9//1 10//1 11//1 12//1 13//1 14//1 15//1 16//1
usemtl Metal
f 21//2 22//2 23//2 24//2
f 24//3 23//3 25//3 26//3
f 26//4 25//4 27//4 28//4
f 28//5 27//5 22//5 21//5
f 27//6 25//6 23//6 22//6
f 29//7 30//7 31//7 32//7 33//7 34//7 35//7 36//7 37//7 38//7 39//7 40//7 41//7 42//7 43//7 44//7
usemtl White
f 17//1 20//1 19//1 18//1
f 20//8 46//8 45//8 19//8
f 46//1 47//1 45//1
f 48//1 51//1 50//1 49//1
f 51//9 53//9 52//9 50//9
f 53//1 54//1 52//1
f 55//1 58//1 57//1 56//1
f 58//10 60//10 59//10 57//10
f 60//1 61//1 59//1
