# Blender v2.79 (sub 0) OBJ File: 'temp.blend'
# www.blender.org
mtllib stopsign.mtl
o Cylinder
v 0.161930 2.101231 0.060322
v -0.162042 2.101277 0.060322
v 0.162042 2.883368 0.060322
v -0.059469 -0.028959 0.000853
v -0.059469 2.495479 0.000853
v -0.000000 2.495479 -0.058616
v -0.000000 -0.028960 -0.058616
v 0.059469 2.495479 0.000853
v 0.059469 -0.028959 0.000853
v -0.000000 2.495479 0.060322
v -0.000000 -0.028959 0.060322
v -0.161930 2.883415 0.060322
v -0.391045 2.654365 0.060322
v -0.391092 2.330393 0.060322
v 0.391045 2.330281 0.060322
v 0.391092 2.654253 0.060322
v 0.356937 2.640111 0.060322
v 0.147890 2.849217 0.060322
v -0.147788 2.849260 0.060322
v -0.356894 2.640213 0.060322
v -0.356937 2.344535 0.060322
v -0.147891 2.135429 0.060322
v 0.147788 2.135386 0.060322
v 0.356894 2.344432 0.060322
v -0.258526 2.580874 0.088085
v -0.226461 2.580874 0.088085
v -0.258526 2.614107 0.088085
v -0.226461 2.614107 0.088085
v -0.258526 2.515142 0.088085
v -0.226461 2.515142 0.088085
v -0.258526 2.479579 0.088085
v -0.226461 2.479579 0.088085
v -0.157928 2.580874 0.088085
v -0.157928 2.614107 0.088085
v -0.189404 2.515142 0.088085
v -0.189404 2.479579 0.088085
v -0.157390 2.515142 0.088085
v -0.157390 2.479579 0.088085
v -0.189404 2.401081 0.088085
v -0.157390 2.401081 0.088085
v -0.189404 2.368971 0.088085
v -0.157390 2.368971 0.088085
v -0.261257 2.401081 0.088085
v -0.261257 2.368971 0.088085
v -0.085501 2.369788 0.088085
v -0.053435 2.369788 0.088085
v -0.085501 2.582247 0.088085
v -0.053435 2.582247 0.088085
v -0.085501 2.613969 0.088085
v -0.053435 2.613969 0.088085
v -0.135371 2.582247 0.088085
v -0.003565 2.582247 0.088085
v -0.135371 2.613969 0.088085
v -0.003565 2.613969 0.088085
v 0.023660 2.401987 0.088085
v 0.055725 2.401987 0.088085
v 0.023659 2.582247 0.088085
v 0.055725 2.582247 0.088085
v 0.023660 2.370387 0.088085
v 0.055725 2.370387 0.088085
v 0.023660 2.613848 0.088085
v 0.055725 2.613848 0.088085
v 0.102766 2.401987 0.088085
v 0.102767 2.582247 0.088085
v 0.102766 2.370387 0.088085
v 0.102767 2.613848 0.088085
v 0.131014 2.401987 0.088085
v 0.131014 2.582247 0.088085
v 0.131014 2.370387 0.088085
v 0.131014 2.613848 0.088085
v 0.163749 2.401987 0.088085
v 0.195814 2.401987 0.088085
v 0.163749 2.582247 0.088085
v 0.195814 2.582247 0.088085
v 0.163749 2.370387 0.088085
v 0.195814 2.370387 0.088085
v 0.163749 2.613848 0.088085
v 0.195814 2.613848 0.088085
v 0.242856 2.516563 0.088085
v 0.242856 2.582247 0.088085
v 0.242856 2.487461 0.088085
v 0.242856 2.613848 0.088085
v 0.271103 2.516563 0.088085
v 0.271103 2.582247 0.088085
v 0.271103 2.487461 0.088085
v 0.271103 2.613848 0.088085
v 0.195387 2.516563 0.088085
v 0.195387 2.487461 0.088085
vn -0.0000 -0.0000 -1.0000
vn -0.7071 0.0000 -0.7071
vn 0.7071 0.0000 -0.7071
vn 0.7071 -0.0000 0.7071
vn -0.7071 -0.0000 0.7071
vn -0.0000 1.0000 -0.0000
vn -0.0000 0.0000 1.0000
usemtl Metal
s off
f 15//1 1//1 2//1 14//1 13//1 12//1 3//1 16//1
f 4//2 5//2 6//2 7//2
f 7//3 6//3 8//3 9//3
f 9//4 8//4 10//4 11//4
f 11//5 10//5 5//5 4//5
f 10//6 8//6 6//6 5//6
usemtl White
f 17//7 16//7 3//7 18//7
f 18//7 3//7 12//7 19//7
f 19//7 12//7 13//7 20//7
f 20//7 13//7 14//7 21//7
f 21//7 14//7 2//7 22//7
f 22//7 2//7 1//7 23//7
f 23//7 1//7 15//7 24//7
f 24//7 15//7 16//7 17//7
f 25//7 26//7 28//7 27//7
f 26//7 25//7 29//7 30//7
f 30//7 29//7 31//7 32//7
f 30//7 32//7 36//7 35//7
f 35//7 36//7 38//7 37//7
f 28//7 26//7 33//7 34//7
f 38//7 36//7 39//7 40//7
f 40//7 39//7 41//7 42//7
f 41//7 39//7 43//7 44//7
f 45//7 46//7 48//7 47//7
f 47//7 48//7 50//7 49//7
f 50//7 48//7 52//7 54//7
f 47//7 49//7 53//7 51//7
f 55//7 56//7 58//7 57//7
f 57//7 58//7 62//7 61//7
f 56//7 55//7 59//7 60//7
f 56//7 60//7 65//7 63//7
f 62//7 58//7 64//7 66//7
f 63//7 65//7 69//7 67//7
f 66//7 64//7 68//7 70//7
f 67//7 68//7 64//7 63//7
f 73//7 74//7 78//7 77//7
f 81//7 79//7 87//7 88//7
f 78//7 74//7 80//7 82//7
f 79//7 81//7 85//7 83//7
f 82//7 80//7 84//7 86//7
f 83//7 84//7 80//7 79//7
f 72//7 74//7 73//7 71//7 75//7 76//7
usemtl Red
f 24//7 17//7 18//7 19//7 20//7 21//7 22//7 23//7
