# Blender v2.79 (sub 0) OBJ File: ''
# www.blender.org
mtllib highwayend.mtl
o Cylinder.003
v -0.059469 -0.028959 0.000853
v -0.059469 2.495479 0.000853
v 0.000000 2.495479 -0.058616
v 0.000000 -0.028959 -0.058616
v 0.059469 2.495479 0.000853
v 0.059469 -0.028959 0.000853
v 0.000000 2.495480 0.060322
v 0.000000 -0.028959 0.060322
v -0.472167 1.857067 0.066050
v 0.466958 1.857067 0.066050
v -0.472167 3.288775 0.066050
v 0.466958 3.288775 0.066050
v -0.472167 2.822578 0.066050
v -0.472167 2.500741 0.066050
v -0.472167 2.178905 0.066050
v 0.466958 2.178904 0.066050
v 0.466958 2.500741 0.066050
v 0.466958 2.822578 0.066050
v 0.002132 3.283453 0.066050
v -0.076779 3.207012 0.073139
v -0.037169 2.726207 0.073139
v -0.125184 2.726207 0.073139
v -0.021996 3.207012 0.073139
v -0.037002 2.602744 0.073139
v -0.130858 2.602744 0.073139
v -0.050781 1.982456 0.073139
v -0.195857 1.982456 0.073139
v 0.082077 3.207012 0.073139
v 0.047937 2.726207 0.073139
v 0.135952 2.726207 0.073139
v 0.027294 3.207012 0.073139
v 0.047770 2.602744 0.073139
v 0.141626 2.602744 0.073139
v 0.065271 1.982456 0.073139
v 0.210347 1.982456 0.073139
v -0.348162 2.655514 0.069244
v 0.355303 2.655514 0.069244
v -0.348162 2.704943 0.069244
v 0.355303 2.704943 0.069244
v -0.301529 2.558212 0.069244
v -0.205709 2.558212 0.069244
v -0.288899 2.655698 0.069244
v -0.218340 2.655698 0.069244
v 0.202562 2.558212 0.069244
v 0.298382 2.558212 0.069244
v 0.215192 2.655698 0.069244
v 0.285751 2.655698 0.069244
v -0.398684 1.857613 0.074493
v 0.468636 3.191367 0.074493
v -0.472452 1.937616 0.074493
v 0.382279 3.283014 0.074493
v 0.466958 3.288775 0.069991
v -0.472167 1.857067 0.069991
vn -0.7071 0.0000 -0.7071
vn 0.7071 0.0000 -0.7071
vn 0.7071 -0.0000 0.7071
vn -0.7071 -0.0000 0.7071
vn 0.0000 1.0000 -0.0000
vn -0.0000 -0.0000 -1.0000
vn 0.0000 0.0000 1.0000
vn 0.0498 0.0470 0.9977
vn -0.0606 -0.0559 0.9966
usemtl Metal
s off
f 1//1 2//1 3//1 4//1
f 4//2 3//2 5//2 6//2
f 6//3 5//3 7//3 8//3
f 8//4 7//4 2//4 1//4
f 7//5 5//5 3//5 2//5
f 9//6 11//6 12//6 10//6
usemtl White
f 26//7 24//7 25//7 27//7
f 22//7 21//7 23//7 20//7
f 34//7 35//7 33//7 32//7
f 30//7 28//7 31//7 29//7
f 36//7 37//7 39//7 38//7
f 40//7 41//7 43//7 42//7
f 44//7 45//7 47//7 46//7
usemtl Green
f 18//7 12//7 19//7 11//7 13//7 14//7 15//7 9//7 10//7 16//7 17//7
usemtl Red
f 48//7 49//7 51//7 50//7
f 51//8 49//8 52//8
f 48//9 50//9 53//9
