# Blender v2.79 (sub 0) OBJ File: ''
# www.blender.org
mtllib bridgebase.mtl
o Cube.003
v 0.596996 0.000205 -0.552595
v 1.180296 0.000205 -0.552595
v 1.180296 0.000205 0.562486
v 0.596996 0.000205 0.562486
v 0.596997 0.483949 -0.552595
v 0.596996 0.483949 0.562486
v 1.180296 0.483949 0.562486
v 1.180297 0.483949 -0.552595
v 1.180297 0.474349 -0.782898
v 0.596997 0.474349 -0.782898
v -1.152904 0.483949 0.562486
v -1.152905 0.000205 0.562485
v -1.152905 0.175675 0.776239
v -1.152904 0.481848 0.776239
v -1.152904 0.483949 -0.552595
v -1.152904 0.000205 -0.552595
v -1.152905 0.175675 1.295850
v -1.152904 0.481848 1.295850
v 1.180296 0.175675 0.776239
v 0.596996 0.175675 0.776239
v 1.180296 0.481848 0.776239
v -0.569604 0.483949 0.562486
v -0.569604 0.481848 0.776239
v -0.569605 0.175675 1.295850
v -0.569604 0.481848 1.295850
v 1.180296 0.175675 1.295850
v 0.596996 0.175675 1.295850
v 1.180296 0.481848 1.295851
v -1.152904 0.189609 -0.782898
v -1.152904 0.474349 -0.782898
v -1.152904 0.474349 -1.299081
v -1.152904 0.189609 -1.299081
v 1.180296 0.189609 -0.782898
v -0.569604 0.000205 -0.552595
v -0.569604 0.189609 -0.782898
v 0.596996 0.189609 -1.299081
v 0.596997 0.474349 -1.299081
v 1.180297 0.474349 -1.299081
v 1.180296 0.189609 -1.299081
v -0.569604 0.189609 -1.299081
v -0.569604 0.474349 -0.782898
v -0.569604 0.474349 -1.299081
v 0.013697 0.474349 -0.782898
v 0.013697 0.474349 -1.299081
v 0.596996 0.189609 -0.782898
v 0.013696 0.189609 -0.782898
v 0.013696 0.189609 -1.299081
v 0.013696 0.000205 -0.552595
v 0.596996 0.481848 0.776239
v 0.596996 0.481848 1.295850
v 0.013696 0.481848 0.776239
v 0.013696 0.481848 1.295850
v -0.569605 0.175675 0.776239
v 0.013696 0.175675 0.776239
v 0.013696 0.175675 1.295850
v 0.013696 0.483949 0.562486
v -0.569605 0.000205 0.562486
v 0.013696 0.000205 0.562486
v -0.569604 0.483949 -0.552595
v 0.013697 0.483949 -0.552595
vn 0.0000 -1.0000 0.0000
vn -0.0000 1.0000 -0.0000
vn 0.0000 1.0000 0.0049
vn -0.0000 0.9991 -0.0416
vn 1.0000 -0.0000 -0.0000
vn -1.0000 0.0000 -0.0000
vn 0.0000 -0.7729 0.6345
vn 0.0000 0.0000 1.0000
vn -0.0000 -0.7724 -0.6352
vn -0.0000 -0.0000 -1.0000
usemtl Concrete
s 1
f 1//1 2//1 3//1 4//1
f 5//2 6//3 7//3 8//2
f 5//4 8//4 9//4 10//4
f 2//5 8//5 7//5 3//5
f 11//6 12//6 13//6 14//6
f 15//6 16//6 12//6 11//6
f 14//6 13//6 17//6 18//6
f 4//7 3//7 19//7 20//7
f 3//5 7//5 21//5 19//5
f 22//3 11//3 14//3 23//3
f 24//8 25//8 18//8 17//8
f 20//1 19//1 26//1 27//1
f 23//3 14//3 18//2 25//2
f 19//5 21//5 28//5 26//5
f 29//6 30//6 31//6 32//6
f 8//5 2//5 33//5 9//5
f 16//6 15//6 30//6 29//6
f 34//9 16//9 29//9 35//9
f 36//10 37//10 38//10 39//10
f 9//5 33//5 39//5 38//5
f 35//1 29//1 32//1 40//1
f 10//2 9//2 38//2 37//2
f 30//2 41//2 42//2 31//2
f 41//2 43//2 44//2 42//2
f 43//2 10//2 37//2 44//2
f 33//1 45//1 36//1 39//1
f 45//1 46//1 47//1 36//1
f 46//1 35//1 40//1 47//1
f 32//10 31//10 42//10 40//10
f 40//10 42//10 44//10 47//10
f 47//10 44//10 37//10 36//10
f 2//9 1//9 45//9 33//9
f 1//9 48//9 46//9 45//9
f 48//9 34//9 35//9 46//9
f 21//3 49//3 50//2 28//2
f 49//3 51//3 52//2 50//2
f 51//3 23//3 25//2 52//2
f 13//1 53//1 24//1 17//1
f 53//1 54//1 55//1 24//1
f 54//1 20//1 27//1 55//1
f 26//8 28//8 50//8 27//8
f 27//8 50//8 52//8 55//8
f 55//8 52//8 25//8 24//8
f 7//3 6//3 49//3 21//3
f 6//3 56//3 51//3 49//3
f 56//3 22//3 23//3 51//3
f 12//7 57//7 53//7 13//7
f 57//7 58//7 54//7 53//7
f 58//7 4//7 20//7 54//7
f 15//4 59//4 41//4 30//4
f 59//4 60//4 43//4 41//4
f 60//4 5//4 10//4 43//4
f 15//2 11//3 22//3 59//2
f 59//2 22//3 56//3 60//2
f 60//2 56//3 6//3 5//2
f 16//1 34//1 57//1 12//1
f 34//1 48//1 58//1 57//1
f 48//1 1//1 4//1 58//1
