# Blender v2.79 (sub 0) OBJ File: ''
# www.blender.org
mtllib bridgebase.mtl
o Cube.002
v 0.566291 0.000205 0.583300
v 0.566291 0.000205 1.166600
v -0.548790 0.000205 1.166600
v -0.548790 0.000205 0.583300
v 0.566291 0.483949 0.583301
v -0.548790 0.483949 0.583300
v -0.548790 0.483949 1.166600
v 0.566291 0.483949 1.166601
v 0.796594 0.474349 1.166601
v 0.796594 0.474349 0.583301
v -0.548790 0.483949 -1.166600
v -0.548789 0.000205 -1.166601
v -0.762543 0.175675 -1.166601
v -0.762543 0.481848 -1.166600
v 0.566291 0.483949 -1.166600
v 0.566291 0.000205 -1.166600
v -1.282154 0.175675 -1.166601
v -1.282154 0.481848 -1.166600
v -0.762543 0.175675 1.166600
v -0.762543 0.175675 0.583300
v -0.762543 0.481848 1.166600
v -0.548790 0.483949 -0.583300
v -0.762543 0.481848 -0.583300
v -1.282154 0.175675 -0.583301
v -1.282154 0.481848 -0.583300
v -1.282154 0.175675 1.166600
v -1.282154 0.175675 0.583300
v -1.282155 0.481848 1.166600
v 0.796594 0.189609 -1.166600
v 0.796594 0.474349 -1.166600
v 1.312777 0.474349 -1.166600
v 1.312777 0.189609 -1.166600
v 0.796594 0.189609 1.166600
v 0.566291 0.000205 -0.583300
v 0.796594 0.189609 -0.583300
v 1.312777 0.189609 0.583300
v 1.312777 0.474349 0.583301
v 1.312777 0.474349 1.166601
v 1.312777 0.189609 1.166600
v 1.312777 0.189609 -0.583300
v 0.796594 0.474349 -0.583300
v 1.312777 0.474349 -0.583300
v 0.796594 0.474349 0.000001
v 1.312777 0.474349 0.000001
v 0.796594 0.189609 0.583300
v 0.796594 0.189609 0.000000
v 1.312777 0.189609 0.000000
v 0.566291 0.000205 0.000000
v -0.762543 0.481848 0.583300
v -1.282154 0.481848 0.583300
v -0.762543 0.481848 0.000000
v -1.282154 0.481848 0.000000
v -0.762543 0.175675 -0.583301
v -0.762543 0.175675 0.000000
v -1.282154 0.175675 0.000000
v -0.548790 0.483949 0.000000
v -0.548790 0.000205 -0.583301
v -0.548790 0.000205 0.000000
v 0.566291 0.483949 -0.583300
v 0.566291 0.483949 0.000001
vn 0.0000 -1.0000 -0.0000
vn -0.0000 1.0000 0.0000
vn 0.0416 0.9991 0.0000
vn -0.0000 -0.0000 1.0000
vn 0.0000 0.0000 -1.0000
vn -0.6345 -0.7729 -0.0000
vn -0.0098 1.0000 0.0000
vn -1.0000 -0.0000 0.0000
vn 0.6352 -0.7724 -0.0000
vn 1.0000 0.0000 0.0000
usemtl Concrete
s off
f 1//1 2//1 3//1 4//1
f 5//2 6//2 7//2 8//2
f 5//3 8//3 9//3 10//3
f 2//4 8//4 7//4 3//4
f 11//5 12//5 13//5 14//5
f 15//5 16//5 12//5 11//5
f 14//5 13//5 17//5 18//5
f 4//6 3//6 19//6 20//6
f 3//4 7//4 21//4 19//4
f 22//7 11//7 14//7 23//7
f 24//8 25//8 18//8 17//8
f 20//1 19//1 26//1 27//1
f 23//2 14//2 18//2 25//2
f 19//4 21//4 28//4 26//4
f 29//5 30//5 31//5 32//5
f 8//4 2//4 33//4 9//4
f 16//5 15//5 30//5 29//5
f 34//9 16//9 29//9 35//9
f 36//10 37//10 38//10 39//10
f 9//4 33//4 39//4 38//4
f 35//1 29//1 32//1 40//1
f 10//2 9//2 38//2 37//2
f 30//2 41//2 42//2 31//2
f 41//2 43//2 44//2 42//2
f 43//2 10//2 37//2 44//2
f 33//1 45//1 36//1 39//1
f 45//1 46//1 47//1 36//1
f 46//1 35//1 40//1 47//1
f 32//10 31//10 42//10 40//10
f 40//10 42//10 44//10 47//10
f 47//10 44//10 37//10 36//10
f 2//9 1//9 45//9 33//9
f 1//9 48//9 46//9 45//9
f 48//9 34//9 35//9 46//9
f 21//2 49//2 50//2 28//2
f 49//2 51//2 52//2 50//2
f 51//2 23//2 25//2 52//2
f 13//1 53//1 24//1 17//1
f 53//1 54//1 55//1 24//1
f 54//1 20//1 27//1 55//1
f 26//8 28//8 50//8 27//8
f 27//8 50//8 52//8 55//8
f 55//8 52//8 25//8 24//8
f 7//7 6//7 49//7 21//7
f 6//7 56//7 51//7 49//7
f 56//7 22//7 23//7 51//7
f 12//6 57//6 53//6 13//6
f 57//6 58//6 54//6 53//6
f 58//6 4//6 20//6 54//6
f 15//3 59//3 41//3 30//3
f 59//3 60//3 43//3 41//3
f 60//3 5//3 10//3 43//3
f 15//2 11//2 22//2 59//2
f 59//2 22//2 56//2 60//2
f 60//2 56//2 6//2 5//2
f 16//1 34//1 57//1 12//1
f 34//1 48//1 58//1 57//1
f 48//1 1//1 4//1 58//1
