# Blender v2.79 (sub 0) OBJ File: ''
# www.blender.org
mtllib concretebarrier.mtl
o Plane.003
v -0.750000 0.000000 0.500000
v -1.500000 0.000000 0.500000
v -1.500000 0.000000 -0.500000
v -0.750000 0.000000 -0.500000
v -1.500000 0.805136 -0.138145
v -1.500000 0.805136 0.138145
v -1.500000 1.749534 0.138145
v -1.500000 1.749534 -0.138145
v 1.500000 0.000000 0.500000
v 1.500000 0.000000 -0.500000
v 1.500000 0.805136 -0.138145
v 1.500000 0.805136 0.138145
v -0.750000 0.805136 -0.138145
v 0.750000 0.000000 0.500000
v 0.750000 0.805136 0.138145
v -0.750000 1.749534 0.138145
v -0.750000 1.749534 -0.138145
v 1.500000 1.749534 -0.138145
v 1.500000 1.749534 0.138145
v 0.750000 1.749534 0.138145
v -0.750000 0.805136 0.138145
v 0.000000 0.805136 0.138145
v 0.000000 1.749534 0.138145
v 0.750000 0.805136 -0.138145
v 0.750000 1.749534 -0.138145
v 0.000000 0.805136 -0.138145
v 0.000000 1.749534 -0.138145
v 0.000000 0.000000 0.500000
v 0.750000 0.000000 -0.500000
v 0.000000 0.000000 -0.500000
vn 0.0000 -1.0000 0.0000
vn -1.0000 0.0000 0.0000
vn 1.0000 -0.0000 0.0000
vn 0.0000 0.4099 -0.9121
vn 0.0000 0.4099 0.9121
vn 0.0000 1.0000 0.0000
vn 0.0000 0.0000 -1.0000
vn 0.0000 -0.0000 1.0000
usemtl Concrete
s 1
f 1//1 2//1 3//1 4//1
f 5//2 6//2 7//2 8//2
f 3//2 2//2 6//2 5//2
f 9//3 10//3 11//3 12//3
f 4//4 3//4 5//4 13//4
f 14//5 9//5 12//5 15//5
f 16//6 17//6 8//6 7//6
f 12//3 11//3 18//3 19//3
f 13//7 5//7 8//7 17//7
f 15//8 12//8 19//8 20//8
f 6//8 21//8 16//8 7//8
f 21//8 22//8 23//8 16//8
f 22//8 15//8 20//8 23//8
f 11//7 24//7 25//7 18//7
f 24//7 26//7 27//7 25//7
f 26//7 13//7 17//7 27//7
f 19//6 18//6 25//6 20//6
f 20//6 25//6 27//6 23//6
f 23//6 27//6 17//6 16//6
f 2//5 1//5 21//5 6//5
f 1//5 28//5 22//5 21//5
f 28//5 14//5 15//5 22//5
f 10//4 29//4 24//4 11//4
f 29//4 30//4 26//4 24//4
f 30//4 4//4 13//4 26//4
f 9//1 14//1 29//1 10//1
f 14//1 28//1 30//1 29//1
f 28//1 1//1 4//1 30//1
