# Blender v2.80 (sub 74) OBJ File: ''
# www.blender.org
mtllib leftforwardarrow.mtl
o Plane_Plane.001
v -0.352680 0.016021 0.586108
v -0.128606 0.016021 0.586108
v -0.128606 0.016022 -1.000000
v -0.352680 0.016022 -1.000000
v -0.235077 0.016021 1.007796
v 0.195558 0.016021 0.586108
v -0.673763 0.016021 0.586108
v 0.239991 0.016021 0.058740
v 0.239991 0.016021 -0.165334
v -0.128606 0.016021 -0.165334
v -0.128606 0.016021 0.058740
v 0.661680 0.016021 -0.058863
v 0.239991 0.016021 -0.489498
v 0.239991 0.016021 0.379823
vn 0.0000 1.0000 0.0000
usemtl White
s 1
f 1//1 2//1 3//1 4//1
f 5//1 6//1 7//1
f 8//1 9//1 10//1 11//1
f 12//1 13//1 14//1
