# Blender v2.80 (sub 74) OBJ File: ''
# www.blender.org
mtllib leftarrow.mtl
o Plane_Plane.000
v -0.487858 0.004595 0.680165
v -0.263784 0.004595 0.680165
v -0.263784 0.004595 -1.000000
v -0.487858 0.004595 -1.000000
v 0.112493 0.004595 0.456091
v -0.263784 0.004595 0.456091
v -0.263784 0.004595 0.680165
v 0.112493 0.004595 0.680165
v 0.534182 0.004595 0.567564
v 0.112493 0.004595 0.128878
v 0.112493 0.004595 0.998199
vn 0.0000 1.0000 0.0000
usemtl White
s 1
f 1//1 2//1 3//1 4//1
f 5//1 6//1 7//1 8//1
f 9//1 10//1 11//1
