# Blender v2.80 (sub 74) OBJ File: ''
# www.blender.org
mtllib rightforwardarrow.mtl
o Plane_Plane.006
v 0.120402 0.015110 0.567594
v 0.344476 0.015110 0.567594
v 0.344476 0.015110 -1.000000
v 0.120402 0.015110 -1.000000
v 0.238005 0.015110 0.989282
v 0.668640 0.015110 0.567594
v -0.200681 0.015110 0.567594
v -0.245075 0.015110 -0.068372
v -0.245075 0.015110 0.155702
v 0.120402 0.015110 0.155702
v 0.120402 0.015110 -0.068372
v -0.666764 0.015110 0.049231
v -0.245075 0.015110 0.479866
v -0.245075 0.015110 -0.389455
vn 0.0000 1.0000 0.0000
usemtl White
s 1
f 1//1 2//1 3//1 4//1
f 5//1 6//1 7//1
f 8//1 9//1 10//1 11//1
f 12//1 13//1 14//1
