# Blender v2.80 (sub 74) OBJ File: ''
# www.blender.org
mtllib rightarrow.mtl
o Plane_Plane.005
v 0.513108 0.008885 0.678627
v 0.513108 0.008885 -1.000000
v 0.289034 0.008885 -1.000000
v -0.091505 0.008885 0.454553
v -0.091505 0.008885 0.678627
v 0.289034 0.008885 0.678627
v 0.289034 0.008885 0.454553
v -0.513193 0.008885 0.572156
v -0.091505 0.008885 1.002791
v -0.091505 0.008885 0.133470
vn 0.0000 1.0000 0.0000
usemtl White
s off
f 7//1 4//1 5//1 6//1
s 1
f 6//1 1//1 2//1 3//1
f 8//1 9//1 10//1
