# Blender v2.79 (sub 0) OBJ File: ''
# www.blender.org
mtllib rightarrow.mtl
o Plane_Plane.003
v -0.112037 0.037898 0.508209
v 0.112037 0.037898 0.508209
v -0.112037 0.037898 -1.000000
v 0.112037 0.037898 -1.000000
v -0.532624 0.037898 0.283114
v -0.532624 0.037898 0.507188
v 0.105736 0.037898 0.283114
v 0.105736 0.037898 0.507188
v -0.914264 0.037898 0.400717
v -0.492576 0.037898 -0.037969
v -0.492576 0.037898 0.831352
vn 0.0000 1.0000 0.0000
usemtl White
s off
f 1//1 2//1 4//1 3//1
f 5//1 6//1 8//1 7//1
f 9//1 11//1 10//1
