# Blender v2.79 (sub 0) OBJ File: ''
# www.blender.org
mtllib arcbridgepillar.mtl
o Cube_Cube.000
v -0.292785 -0.004773 0.743903
v -0.292785 1.483032 0.743903
v -0.292785 1.483032 -0.743903
v -0.292785 -0.004773 -0.743903
v 0.292785 1.483032 -0.743903
v 0.292785 -0.004773 -0.743903
v 0.292785 1.483032 0.743903
v 0.292785 -0.004773 0.743903
v -1.200531 3.003145 -0.743903
v -1.375947 2.536297 -0.743903
v -1.828365 2.565219 -0.743903
v -1.828365 3.150789 -0.743901
v -1.828365 2.565219 0.743903
v -1.828365 3.150789 0.743905
v -1.200531 3.003145 0.743903
v -1.375947 2.536297 0.743903
v -0.059361 2.147100 0.743903
v -0.570398 2.000707 0.743903
v -0.621135 2.655880 0.743903
v -0.973630 2.343900 0.743903
v -0.570398 2.000707 -0.743903
v -0.973630 2.343900 -0.743903
v -0.059361 2.147100 -0.743903
v -0.621135 2.655880 -0.743903
v 1.200531 3.003145 0.743903
v 1.375947 2.536297 0.743902
v 1.828365 2.565219 0.743902
v 1.828365 3.150789 0.743904
v 1.828364 2.565219 -0.743903
v 1.828364 3.150789 -0.743901
v 1.200531 3.003145 -0.743903
v 1.375947 2.536297 -0.743903
v 0.292785 1.483032 -0.743902
v -0.292785 1.483032 -0.743902
v 0.059361 2.147100 -0.743902
v 0.570398 2.000707 -0.743903
v 0.621135 2.655880 -0.743902
v 0.973630 2.343900 -0.743903
v 0.292785 1.483032 0.743903
v 0.570398 2.000707 0.743903
v 0.973630 2.343900 0.743903
v -0.292785 1.483032 0.743903
v 0.059361 2.147100 0.743903
v 0.621135 2.655880 0.743903
vn -1.0000 -0.0000 0.0000
vn 0.0000 0.0000 -1.0000
vn 1.0000 0.0000 0.0000
vn 0.0000 -0.0000 1.0000
vn 0.2289 0.9734 0.0000
vn -0.0638 -0.9980 -0.0000
vn -0.8813 -0.4726 -0.0000
vn -0.6481 -0.7615 -0.0000
vn -0.4314 -0.9021 -0.0000
vn 0.8835 0.4685 0.0000
vn 0.6713 0.7412 0.0000
vn 0.5141 0.8577 0.0000
vn -0.2289 0.9734 0.0000
vn 0.0638 -0.9980 -0.0000
vn 0.8813 -0.4726 -0.0000
vn 0.6481 -0.7615 -0.0000
vn 0.4314 -0.9021 -0.0000
vn -0.8835 0.4685 0.0000
vn -0.6713 0.7412 0.0000
vn -0.5141 0.8577 0.0000
usemtl Concrete
s 1
f 1//1 2//1 3//1 4//1
f 4//2 3//2 5//2 6//2
f 6//3 5//3 7//3 8//3
f 8//4 7//4 2//4 1//4
f 9//2 10//2 11//2 12//2
f 12//1 11//1 13//1 14//1
f 15//5 9//5 12//5 14//5
f 10//6 16//6 13//6 11//6
f 16//4 15//4 14//4 13//4
f 2//4 7//4 17//4 18//4
f 18//4 17//4 19//4 20//4
f 20//4 19//4 15//4 16//4
f 3//7 2//7 18//7 21//7
f 21//8 18//8 20//8 22//8
f 22//9 20//9 16//9 10//9
f 7//10 5//10 23//10 17//10
f 17//11 23//11 24//11 19//11
f 19//12 24//12 9//12 15//12
f 5//2 3//2 21//2 23//2
f 23//2 21//2 22//2 24//2
f 24//2 22//2 10//2 9//2
f 25//4 26//4 27//4 28//4
f 28//3 27//3 29//3 30//3
f 31//13 25//13 28//13 30//13
f 26//14 32//14 29//14 27//14
f 32//2 31//2 30//2 29//2
f 33//2 34//2 35//2 36//2
f 36//2 35//2 37//2 38//2
f 38//2 37//2 31//2 32//2
f 39//15 33//15 36//15 40//15
f 40//16 36//16 38//16 41//16
f 41//17 38//17 32//17 26//17
f 34//18 42//18 43//18 35//18
f 35//19 43//19 44//19 37//19
f 37//20 44//20 25//20 31//20
f 42//4 39//4 40//4 43//4
f 43//4 40//4 41//4 44//4
f 44//4 41//4 26//4 25//4
