# Blender v2.79 (sub 0) OBJ File: ''
# www.blender.org
mtllib bridgerailing.mtl
o Plane
v -0.511119 0.007143 -0.071738
v -0.511119 0.007143 0.071738
v -0.507176 0.148439 -0.054354
v -0.507176 0.148439 0.032803
v -0.507176 0.307666 -0.024385
v -0.507176 0.307666 0.031871
v -0.507176 0.475307 0.032907
v -0.507176 0.460570 0.070856
v -0.460876 0.147565 -0.054354
v -0.464819 0.006270 -0.071738
v -0.464819 0.006270 0.071738
v -0.460876 0.147565 0.032803
v -0.460876 0.306792 0.031871
v -0.460876 0.306792 -0.024385
v -0.460876 0.459696 0.070856
v -0.460876 0.474433 0.032907
v 0.486407 0.007143 -0.071738
v 0.486407 0.007143 0.071738
v 0.490350 0.148439 -0.054354
v 0.490350 0.148439 0.032803
v 0.490350 0.307666 -0.024385
v 0.490350 0.307666 0.031871
v 0.490350 0.475307 0.032907
v 0.490350 0.460570 0.070856
v 0.536650 0.147565 -0.054354
v 0.532707 0.006270 -0.071738
v 0.532707 0.006270 0.071738
v 0.536650 0.147565 0.032803
v 0.536650 0.306792 0.031871
v 0.536650 0.306792 -0.024385
v 0.536650 0.459696 0.070856
v 0.536650 0.474433 0.032907
v -0.018116 0.007143 -0.071738
v -0.018116 0.007143 0.071738
v -0.014173 0.148439 -0.054354
v -0.014173 0.148439 0.032803
v -0.014173 0.307666 -0.024385
v -0.014173 0.307666 0.031871
v -0.014173 0.475307 0.032907
v -0.014173 0.460570 0.070856
v 0.032127 0.147565 -0.054354
v 0.028184 0.006270 -0.071738
v 0.028184 0.006270 0.071738
v 0.032127 0.147565 0.032803
v 0.032127 0.306792 0.031871
v 0.032127 0.306792 -0.024385
v 0.032127 0.459696 0.070856
v 0.032127 0.474433 0.032907
v -0.470422 0.410712 0.022309
v -0.470422 0.429937 0.037376
v 0.519824 0.410712 0.022309
v 0.519824 0.429937 0.037375
v -0.470422 0.395645 0.041535
v -0.470422 0.414871 0.056601
v 0.519824 0.395645 0.041535
v 0.519824 0.414871 0.056601
v -0.470422 0.264837 -0.010056
v -0.470422 0.284063 0.005011
v 0.519824 0.264837 -0.010056
v 0.519824 0.284063 0.005011
v -0.470422 0.249771 0.009170
v -0.470422 0.268996 0.024236
v 0.519824 0.249771 0.009170
v 0.519824 0.268996 0.024236
v -0.470422 0.115049 -0.030461
v -0.470422 0.134275 -0.015394
v 0.519824 0.115049 -0.030461
v 0.519824 0.134275 -0.015394
v -0.470422 0.099983 -0.011235
v -0.470422 0.119209 0.003832
v 0.519824 0.099983 -0.011235
v 0.519824 0.119209 0.003832
vn -0.9996 0.0279 0.0000
vn -1.0000 0.0000 0.0000
vn 0.9996 -0.0279 -0.0000
vn 1.0000 -0.0000 -0.0000
vn 0.0176 0.9320 0.3619
vn 0.0023 0.1220 -0.9925
vn -0.0189 -0.9998 0.0000
vn 0.0061 0.3234 -0.9462
vn 0.0035 0.1850 -0.9827
vn 0.0050 0.2655 0.9641
vn -0.0047 -0.2471 0.9690
vn 0.0001 0.0059 1.0000
vn -0.0000 0.6168 -0.7871
vn 0.0000 -0.6168 0.7871
vn -0.0000 -0.7871 -0.6168
vn 0.0000 0.7871 0.6168
usemtl Concrete
s off
f 1//1 2//1 4//1 3//1
f 3//2 4//2 6//2 5//2
f 5//2 6//2 8//2 7//2
f 10//3 9//3 12//3 11//3
f 9//4 14//4 13//4 12//4
f 14//4 16//4 15//4 13//4
f 23//5 24//5 31//5 32//5
f 3//6 9//6 10//6 1//6
f 1//7 10//7 11//7 2//7
f 7//8 16//8 14//8 5//8
f 5//9 14//9 9//9 3//9
f 2//10 11//10 12//10 4//10
f 6//11 13//11 15//11 8//11
f 4//12 12//12 13//12 6//12
f 17//1 18//1 20//1 19//1
f 19//2 20//2 22//2 21//2
f 21//2 22//2 24//2 23//2
f 26//3 25//3 28//3 27//3
f 25//4 30//4 29//4 28//4
f 30//4 32//4 31//4 29//4
f 39//5 40//5 47//5 48//5
f 19//6 25//6 26//6 17//6
f 17//7 26//7 27//7 18//7
f 23//8 32//8 30//8 21//8
f 21//9 30//9 25//9 19//9
f 18//10 27//10 28//10 20//10
f 22//11 29//11 31//11 24//11
f 20//12 28//12 29//12 22//12
f 33//1 34//1 36//1 35//1
f 35//2 36//2 38//2 37//2
f 37//2 38//2 40//2 39//2
f 42//3 41//3 44//3 43//3
f 41//4 46//4 45//4 44//4
f 46//4 48//4 47//4 45//4
f 7//5 8//5 15//5 16//5
f 35//6 41//6 42//6 33//6
f 33//7 42//7 43//7 34//7
f 39//8 48//8 46//8 37//8
f 37//9 46//9 41//9 35//9
f 34//10 43//10 44//10 36//10
f 38//11 45//11 47//11 40//11
f 36//12 44//12 45//12 38//12
f 49//13 50//13 52//13 51//13
f 55//14 56//14 54//14 53//14
f 51//15 55//15 53//15 49//15
f 56//16 52//16 50//16 54//16
f 57//13 58//13 60//13 59//13
f 63//14 64//14 62//14 61//14
f 59//15 63//15 61//15 57//15
f 64//16 60//16 58//16 62//16
f 65//13 66//13 68//13 67//13
f 71//14 72//14 70//14 69//14
f 67//15 71//15 69//15 65//15
f 72//16 68//16 66//16 70//16
