# Blender v2.79 (sub 0) OBJ File: ''
# www.blender.org
mtllib arcbridgepillar.mtl
o Cube_Cube.000
v -0.177772 -1.041723 0.451679
v -0.177772 -0.096246 0.451680
v -0.177772 -0.096246 -0.451679
v -0.177772 -1.041723 -0.451679
v 0.177772 -0.096246 -0.451679
v 0.177772 -1.041723 -0.451679
v 0.177772 -0.096246 0.451680
v 0.177772 -1.041723 0.451679
v -0.728933 0.869762 -0.451679
v -0.835441 0.573088 -0.451679
v -1.110138 0.591467 -0.451679
v -1.110138 0.963588 -0.451678
v -1.110138 0.591467 0.451680
v -1.110138 0.963588 0.451681
v -0.728933 0.869762 0.451680
v -0.835441 0.573087 0.451680
v -0.036043 0.325759 0.451680
v -0.346332 0.232728 0.451680
v -0.377138 0.649081 0.451680
v -0.591164 0.450822 0.451680
v -0.346332 0.232728 -0.451679
v -0.591164 0.450822 -0.451679
v -0.036043 0.325759 -0.451679
v -0.377138 0.649081 -0.451679
v 0.728933 0.869762 0.451680
v 0.835441 0.573087 0.451679
v 1.110138 0.591467 0.451679
v 1.110138 0.963588 0.451680
v 1.110137 0.591467 -0.451679
v 1.110137 0.963588 -0.451678
v 0.728933 0.869762 -0.451679
v 0.835441 0.573088 -0.451679
v 0.177772 -0.096246 -0.451679
v -0.177772 -0.096246 -0.451679
v 0.036043 0.325759 -0.451679
v 0.346332 0.232728 -0.451679
v 0.377138 0.649081 -0.451679
v 0.591164 0.450822 -0.451679
v 0.177772 -0.096246 0.451680
v 0.346332 0.232728 0.451680
v 0.591164 0.450822 0.451680
v -0.177772 -0.096246 0.451680
v 0.036043 0.325759 0.451680
v 0.377138 0.649081 0.451680
vn -1.0000 0.0000 0.0000
vn 0.0000 0.0000 -1.0000
vn 1.0000 -0.0000 0.0000
vn 0.0000 -0.0000 1.0000
vn 0.2390 0.9710 0.0000
vn -0.0668 -0.9978 -0.0000
vn -0.8900 -0.4560 -0.0000
vn -0.6652 -0.7467 -0.0000
vn -0.4476 -0.8942 -0.0000
vn 0.8920 0.4520 0.0000
vn 0.6879 0.7258 0.0000
vn 0.5314 0.8471 0.0000
vn -0.2390 0.9710 0.0000
vn 0.0668 -0.9978 -0.0000
vn 0.8900 -0.4560 -0.0000
vn 0.6652 -0.7467 -0.0000
vn 0.4476 -0.8942 -0.0000
vn -0.8920 0.4520 0.0000
vn -0.6879 0.7258 0.0000
vn -0.5314 0.8471 0.0000
usemtl Concrete
s 1
f 1//1 2//1 3//1 4//1
f 4//2 3//2 5//2 6//2
f 6//3 5//3 7//3 8//3
f 8//4 7//4 2//4 1//4
f 9//2 10//2 11//2 12//2
f 12//1 11//1 13//1 14//1
f 15//5 9//5 12//5 14//5
f 10//6 16//6 13//6 11//6
f 16//4 15//4 14//4 13//4
f 2//4 7//4 17//4 18//4
f 18//4 17//4 19//4 20//4
f 20//4 19//4 15//4 16//4
f 3//7 2//7 18//7 21//7
f 21//8 18//8 20//8 22//8
f 22//9 20//9 16//9 10//9
f 7//10 5//10 23//10 17//10
f 17//11 23//11 24//11 19//11
f 19//12 24//12 9//12 15//12
f 5//2 3//2 21//2 23//2
f 23//2 21//2 22//2 24//2
f 24//2 22//2 10//2 9//2
f 25//4 26//4 27//4 28//4
f 28//3 27//3 29//3 30//3
f 31//13 25//13 28//13 30//13
f 26//14 32//14 29//14 27//14
f 32//2 31//2 30//2 29//2
f 33//2 34//2 35//2 36//2
f 36//2 35//2 37//2 38//2
f 38//2 37//2 31//2 32//2
f 39//15 33//15 36//15 40//15
f 40//16 36//16 38//16 41//16
f 41//17 38//17 32//17 26//17
f 34//18 42//18 43//18 35//18
f 35//19 43//19 44//19 37//19
f 37//20 44//20 25//20 31//20
f 42//4 39//4 40//4 43//4
f 43//4 40//4 41//4 44//4
f 44//4 41//4 26//4 25//4
