# Blender v2.79 (sub 0) OBJ File: ''
# www.blender.org
mtllib largearcbridgepillar.mtl
o Cube_Cube.001
v 0.776195 0.219636 0.000000
v 0.776195 0.179097 0.516226
v -0.776195 0.179097 0.516226
v -0.776195 0.219636 0.000000
v 0.776195 0.063652 0.953861
v -0.776195 0.063652 0.953862
v 0.776195 -0.109124 1.246280
v -0.776195 -0.109123 1.246280
v 0.776195 -0.312926 1.348964
v -0.776195 -0.312926 1.348964
v 0.776195 0.449710 1.348964
v 0.776195 0.449710 1.695351
v 0.776195 -0.312926 1.695351
v -0.776195 -0.312926 -1.695351
v -0.776195 0.449710 -1.695351
v 0.776195 0.449710 -1.695352
v 0.776195 -0.312926 -1.695352
v -0.776195 0.449710 1.695351
v -0.776195 -0.312926 1.695351
v 0.776195 -0.312926 -1.348964
v 0.776195 -0.109123 -1.246281
v -0.776195 -0.109123 -1.246280
v -0.776195 -0.312926 -1.348964
v 0.776195 0.063652 -0.953862
v -0.776195 0.063652 -0.953861
v 0.776195 0.179097 -0.516226
v -0.776195 0.179097 -0.516226
v -0.776195 0.449710 1.348964
v -0.776195 0.449710 1.246280
v 0.776195 0.449710 1.246280
v 0.776195 0.449710 0.953861
v -0.776195 0.449710 0.953862
v 0.776195 0.449710 0.516226
v 0.776195 0.449710 0.000000
v 0.776195 0.449710 -0.516226
v 0.776195 0.449710 -0.953862
v 0.776195 0.449710 -1.246281
v 0.776195 0.449710 -1.348964
v -0.776195 0.449710 -1.348964
v -0.776195 0.449710 -1.246280
v -0.776195 0.449710 -0.953861
v -0.776195 0.449710 -0.516226
v -0.776195 0.449710 0.000000
v -0.776195 0.449710 0.516226
vn 0.0000 -0.9969 -0.0783
vn -0.0000 -0.9669 -0.2551
vn -0.0000 -0.8609 -0.5087
vn -0.0000 -0.4500 -0.8931
vn 1.0000 0.0000 0.0000
vn -0.0000 0.0000 -1.0000
vn 0.0000 -0.0000 1.0000
vn 0.0000 -1.0000 -0.0000
vn 0.0000 -0.4500 0.8931
vn 0.0000 -0.8609 0.5087
vn 0.0000 -0.9669 0.2551
vn 0.0000 -0.9969 0.0783
vn -1.0000 -0.0000 0.0000
vn 0.0000 1.0000 0.0000
usemtl Concrete.001
s 1
f 1//1 2//1 3//1 4//1
f 2//2 5//2 6//2 3//2
f 5//3 7//3 8//3 6//3
f 7//4 9//4 10//4 8//4
f 9//5 11//5 12//5 13//5
f 14//6 15//6 16//6 17//6
f 13//7 12//7 18//7 19//7
f 9//8 13//8 19//8 10//8
f 20//9 21//9 22//9 23//9
f 21//10 24//10 25//10 22//10
f 23//8 14//8 17//8 20//8
f 24//11 26//11 27//11 25//11
f 26//12 1//12 4//12 27//12
f 19//13 18//13 28//13 10//13
f 10//13 28//13 29//13 8//13
f 7//5 30//5 11//5 9//5
f 5//5 31//5 30//5 7//5
f 8//13 29//13 32//13 6//13
f 12//14 11//14 30//14 31//14 33//14 34//14 35//14 36//14 37//14 38//14 16//14 15//14 39//14 40//14 41//14 42//14 43//14 44//14 32//14 29//14 28//14 18//14
f 6//13 32//13 44//13 3//13
f 2//5 33//5 31//5 5//5
f 34//5 33//5 2//5 1//5
f 3//13 44//13 43//13 4//13
f 4//13 43//13 42//13 27//13
f 27//13 42//13 41//13 25//13
f 23//13 39//13 15//13 14//13
f 22//13 40//13 39//13 23//13
f 25//13 41//13 40//13 22//13
f 26//5 35//5 34//5 1//5
f 24//5 36//5 35//5 26//5
f 21//5 37//5 36//5 24//5
f 20//5 38//5 37//5 21//5
f 17//5 16//5 38//5 20//5
