# Blender v2.79 (sub 0) OBJ File: ''
# www.blender.org
mtllib concretebarrier.mtl
o Plane.003
v 1.500000 -0.000000 0.500000
v 1.500000 -0.000000 -0.500000
v -1.500000 0.000000 -0.500000
v -1.500000 0.000000 0.500000
v -1.500000 0.805136 -0.138145
v -1.500000 1.749534 -0.138145
v -1.500000 1.749534 0.138145
v -1.500000 0.805136 0.138145
v 1.500000 0.805136 0.138145
v 1.500000 0.805136 -0.138145
v 1.500000 1.749534 0.138145
v 1.500000 1.749534 -0.138145
v 1.500000 -0.000000 0.500000
v -1.500000 0.000000 0.500000
v -1.500000 0.000000 -0.500000
v 1.500000 -0.000000 -0.500000
v -1.500000 0.805136 -0.138145
v -1.500000 0.805136 0.138145
v -1.500000 1.749534 0.138145
v -1.500000 1.749534 -0.138145
v 1.500000 0.805136 -0.138145
v 1.500000 0.805136 0.138145
v 1.500000 1.749534 0.138145
v 1.500000 1.749534 -0.138145
vn 0.0000 1.0000 0.0000
vn 1.0000 -0.0000 0.0000
vn -1.0000 0.0000 0.0000
vn -0.0000 -0.4099 0.9121
vn 0.0000 -0.4099 -0.9121
vn -0.0000 -1.0000 0.0000
vn -0.0000 0.0000 1.0000
vn 0.0000 -0.0000 -1.0000
vn 0.0000 0.4099 -0.9121
vn -0.0000 0.4099 0.9121
usemtl Concrete
s 1
f 1//1 2//1 3//1 4//1
f 5//2 6//2 7//2 8//2
f 3//2 5//2 8//2 4//2
f 1//3 9//3 10//3 2//3
f 2//4 10//4 5//4 3//4
f 4//5 8//5 9//5 1//5
f 11//6 7//6 6//6 12//6
f 9//3 11//3 12//3 10//3
f 10//7 12//7 6//7 5//7
f 8//8 7//8 11//8 9//8
f 13//6 14//6 15//6 16//6
f 17//3 18//3 19//3 20//3
f 15//3 14//3 18//3 17//3
f 13//2 16//2 21//2 22//2
f 16//9 15//9 17//9 21//9
f 14//10 13//10 22//10 18//10
f 23//1 24//1 20//1 19//1
f 22//2 21//2 24//2 23//2
f 21//8 17//8 20//8 24//8
f 18//7 22//7 23//7 19//7
