# Blender v2.79 (sub 0) OBJ File: ''
# www.blender.org
mtllib cone.mtl
o Plane_Plane.001
v -0.383847 0.000000 0.388433
v 0.393019 0.000000 0.388433
v -0.383847 0.000000 -0.388433
v 0.393019 0.000000 -0.388433
v -0.383847 0.052621 0.388433
v 0.393019 0.052621 0.388433
v -0.383847 0.052621 -0.388433
v 0.393019 0.052621 -0.388433
v 0.339884 0.013793 -0.193585
v 0.339884 0.013793 0.193585
v 0.004586 0.069383 -0.292789
v 0.004586 0.988714 -0.079987
v 0.211619 0.069383 -0.207033
v 0.061145 0.988714 -0.056559
v 0.297375 0.069383 0.000000
v 0.084573 0.988714 -0.000000
v 0.211619 0.069383 0.207033
v 0.061145 0.988714 0.056559
v 0.004586 0.069383 0.292789
v 0.004586 0.988714 0.079987
v -0.202447 0.069383 0.207033
v -0.051974 0.988714 0.056559
v -0.288203 0.069383 -0.000000
v -0.075401 0.988714 -0.000000
v -0.202447 0.069383 -0.207033
v -0.051974 0.988714 -0.056559
v 0.004586 0.623945 -0.164422
v 0.120850 0.623945 -0.116264
v 0.169008 0.623945 0.000000
v 0.120850 0.623945 0.116264
v 0.004586 0.623945 0.164422
v -0.111678 0.623945 0.116264
v -0.159836 0.623945 -0.000000
v -0.111678 0.623945 -0.116264
v 0.147218 0.462846 -0.142632
v 0.206298 0.462846 0.000000
v 0.147218 0.462846 0.142632
v 0.004586 0.462846 0.201712
v -0.138046 0.462846 0.142632
v -0.197126 0.462846 -0.000000
v -0.138046 0.462846 -0.142632
v 0.004586 0.462846 -0.201712
vn -0.3742 0.2091 -0.9035
vn -0.9035 0.2091 -0.3742
vn -0.9035 0.2091 0.3742
vn -0.3742 0.2091 0.9035
vn 0.3742 0.2091 0.9035
vn 0.9035 0.2091 0.3742
vn 0.9035 0.2091 -0.3742
vn 0.3742 0.2091 -0.9035
vn 0.0000 -1.0000 0.0000
vn 0.0000 1.0000 0.0000
vn -1.0000 0.0000 0.0000
vn 0.0000 0.0000 -1.0000
vn 0.0000 0.0000 1.0000
vn 1.0000 0.0000 0.0000
usemtl White
s off
f 41//1 34//1 27//1 42//1
f 40//2 33//2 34//2 41//2
f 39//3 32//3 33//3 40//3
f 38//4 31//4 32//4 39//4
f 37//5 30//5 31//5 38//5
f 36//6 29//6 30//6 37//6
f 35//7 28//7 29//7 36//7
f 42//8 27//8 28//8 35//8
usemtl Orange
f 1//9 3//9 4//9 2//9
f 5//10 6//10 8//10 7//10
f 3//11 1//11 5//11 7//11
f 4//12 3//12 7//12 8//12
f 1//13 2//13 6//13 5//13
f 2//14 4//14 8//14 6//14
f 27//8 12//8 14//8 28//8
f 28//7 14//7 16//7 29//7
f 29//6 16//6 18//6 30//6
f 30//5 18//5 20//5 31//5
f 31//4 20//4 22//4 32//4
f 32//3 22//3 24//3 33//3
f 14//10 12//10 26//10 24//10 22//10 20//10 18//10 16//10
f 33//2 24//2 26//2 34//2
f 34//1 26//1 12//1 27//1
f 11//8 42//8 35//8 13//8
f 13//7 35//7 36//7 15//7
f 15//6 36//6 37//6 17//6
f 17//5 37//5 38//5 19//5
f 19//4 38//4 39//4 21//4
f 21//3 39//3 40//3 23//3
f 23//2 40//2 41//2 25//2
f 25//1 41//1 42//1 11//1
l 9 10
