# Blender v2.79 (sub 0) OBJ File: ''
# www.blender.org
mtllib largecrossing.mtl
o Plane.004
v 1.291295 0.016624 0.500000
v 1.697975 0.016624 0.500000
v 1.697975 0.016624 -0.500000
v 1.291295 0.016624 -0.500000
v 0.705991 0.016624 0.500000
v 1.112671 0.016624 0.500000
v 1.112671 0.016624 -0.500000
v 0.705991 0.016624 -0.500000
v 0.097126 0.016624 0.500000
v 0.503806 0.016624 0.500000
v 0.503806 0.016624 -0.500000
v 0.097126 0.016624 -0.500000
v -1.696006 0.016624 0.500000
v -1.289326 0.016624 0.500000
v -1.289326 0.016624 -0.500000
v -1.696006 0.016624 -0.500000
v -0.501837 0.016624 0.500000
v -0.095157 0.016624 0.500000
v -0.095157 0.016624 -0.500000
v -0.501837 0.016624 -0.500000
v -1.087141 0.016624 0.500000
v -0.680461 0.016624 0.500000
v -0.680461 0.016624 -0.500000
v -1.087141 0.016624 -0.500000
vn 0.0000 1.0000 0.0000
usemtl Lane_Marking
s 1
f 1//1 2//1 3//1 4//1
f 5//1 6//1 7//1 8//1
f 9//1 10//1 11//1 12//1
f 13//1 14//1 15//1 16//1
f 17//1 18//1 19//1 20//1
f 21//1 22//1 23//1 24//1
