# Blender v2.79 (sub 0) OBJ File: ''
# www.blender.org
mtllib smallcrossing.mtl
o Plane.001
v 0.382263 0.017372 0.500000
v 0.788943 0.017372 0.500000
v 0.382263 0.017372 -0.500000
v 0.788943 0.017372 -0.500000
v -0.811907 0.017372 0.500000
v -0.405227 0.017372 0.500000
v -0.811907 0.017372 -0.500000
v -0.405227 0.017372 -0.500000
v -0.203041 0.017372 0.500000
v 0.203639 0.017372 0.500000
v -0.203041 0.017372 -0.500000
v 0.203639 0.017372 -0.500000
vn 0.0000 1.0000 0.0000
usemtl Lane_Marking
s off
f 1//1 2//1 4//1 3//1
f 5//1 6//1 8//1 7//1
f 9//1 10//1 12//1 11//1
